<?xml version="1.0" encoding="UTF-8" standalone="no"?>
<svg
   version="1.1"
   width="366"
   height="107"
   id="svg41"
   sodipodi:docname="fahlevisiawhite.svg"
   inkscape:version="1.3 (0e150ed6c4, 2023-07-21)"
   xmlns:inkscape="http://www.inkscape.org/namespaces/inkscape"
   xmlns:sodipodi="http://sodipodi.sourceforge.net/DTD/sodipodi-0.dtd"
   xmlns="http://www.w3.org/2000/svg"
   xmlns:svg="http://www.w3.org/2000/svg">
  <sodipodi:namedview
     id="namedview41"
     pagecolor="#ffffff"
     bordercolor="#000000"
     borderopacity="0.25"
     inkscape:showpageshadow="2"
     inkscape:pageopacity="0.0"
     inkscape:pagecheckerboard="0"
     inkscape:deskcolor="#d1d1d1"
     inkscape:zoom="2.0993242"
     inkscape:cx="182.20149"
     inkscape:cy="28.342454"
     inkscape:window-width="1366"
     inkscape:window-height="676"
     inkscape:window-x="0"
     inkscape:window-y="42"
     inkscape:window-maximized="1"
     inkscape:current-layer="svg41" />
  <defs
     id="defs1">
    <clipPath
       id="nHaEtTlZNmZc">
      <path
         fill="none"
         stroke="none"
         d=" M 0 0 L 366 0 L 366 107 L 0 107 L 0 0 Z"
         id="path1" />
    </clipPath>
  </defs>
  <g
     transform="scale(1,1)"
     clip-path="url(#nHaEtTlZNmZc)"
     id="g41">
    <g
       transform="translate(-193,-214)"
       id="g40">
      <path
         fill="rgb(101,87,210)"
         stroke="none"
         paint-order="stroke fill markers"
         fill-rule="evenodd"
         d=" M 450 115 L 472 115 C 473.1045694996616 115 474 115.8954305003384 474 117 L 474 139 C 474 140.10456949966158 473.1045694996616 141 472 141 L 450 141 C 448.8954305003384 141 448 140.10456949966158 448 139 L 448 117 C 448 115.8954305003384 448.8954305003384 115 450 115 Z"
         fill-opacity="1"
         id="path2" />
      <g
         transform="translate(448,115)"
         id="g39">
        <path
           fill="none"
           stroke="rgb(255,255,255)"
           paint-order="fill stroke markers"
           d=" M 4.44 13.76 L 9.75 19.07 L 21.99 6.83"
           stroke-opacity="1"
           stroke-linecap="square"
           stroke-miterlimit="10"
           stroke-width="2.6"
           id="path3" />
        <g
           transform="translate(-448,-115)"
           id="g38">
          <text
             fill="rgb(0,0,0)"
             stroke="none"
             font-family="geogebra-sans-serif, sans-serif"
             font-size="32px"
             font-style="normal"
             font-weight="normal"
             text-decoration="normal"
             x="483"
             y="140"
             text-anchor="start"
             dominant-baseline="alphabetic"
             fill-opacity="1"
             id="text3">Serif</text>
          <g
             transform="scale(35,35)"
             id="g32">
            <g
               transform="translate(5.8,6.44)"
               id="g4">
              <path
                 fill="rgb(0,0,0)"
                 stroke="none"
                 paint-order="stroke fill markers"
                 d=" M 0.59912109375 2.341796875 L 0.1279296875 1.1708984375 Q 0.125 1.1650390625 0.125 1.16015625 Q 0.125 1.15380859375 0.126953125 1.15087890625 L 0.59912109375 -0.02294921875 Q 0.6064453125 -0.03857421875 0.625 -0.0400390625 Q 0.64990234375 -0.037109375 0.65283203125 -0.01220703125 Q 0.65283203125 -0.005859375 0.65185546875 -0.0029296875 L 0.18408203125 1.16015625 L 0.65087890625 2.31982421875 Q 0.65283203125 2.32666015625 0.65283203125 2.3310546875 Q 0.64990234375 2.35595703125 0.625 2.35888671875 Q 0.6064453125 2.357421875 0.59912109375 2.341796875 Z"
                 id="path4" />
            </g>
            <g
               transform="translate(7.284630340586174,7.173492)"
               id="g5">
              <path
                 fill="rgb(0,0,0)"
                 stroke="none"
                 paint-order="stroke fill markers"
                 d=" M 0.521 -0.327 L 0.096 -0.327 L 0.096 -0.033 Q 0.096 -0.001 0.076 0 Q 0.056 0 0.056 -0.034 L 0.056 -0.66 Q 0.056 -0.6930000000000001 0.076 -0.6940000000000001 Q 0.096 -0.6940000000000001 0.096 -0.661 L 0.096 -0.367 L 0.521 -0.367 Q 0.553 -0.367 0.554 -0.34700000000000003 Q 0.554 -0.327 0.521 -0.327 Z"
                 id="path5" />
            </g>
            <g
               transform="translate(8.173408118363952,7.173492)"
               id="g6">
              <path
                 fill="rgb(0,0,0)"
                 stroke="none"
                 paint-order="stroke fill markers"
                 d=" M 0.582 -0.68 L 0.61 -0.455 L 0.585 -0.455 Q 0.5720000000000001 -0.5650000000000001 0.541 -0.603 Q 0.502 -0.649 0.394 -0.649 L 0.274 -0.649 Q 0.23500000000000001 -0.649 0.228 -0.637 L 0.228 -0.636 L 0.228 -0.636 L 0.228 -0.635 Q 0.225 -0.629 0.225 -0.609 L 0.225 -0.356 L 0.311 -0.356 Q 0.387 -0.356 0.406 -0.392 Q 0.417 -0.41400000000000003 0.417 -0.47300000000000003 L 0.442 -0.47300000000000003 L 0.442 -0.20800000000000002 L 0.417 -0.20800000000000002 Q 0.417 -0.281 0.396 -0.302 L 0.396 -0.303 L 0.395 -0.304 Q 0.373 -0.325 0.311 -0.325 L 0.225 -0.325 L 0.225 -0.079 Q 0.225 -0.05 0.23700000000000002 -0.042 Q 0.253 -0.031 0.32 -0.031 L 0.353 -0.031 L 0.353 0 Q 0.317 -0.003 0.185 -0.003 Q 0.068 -0.003 0.033 0 L 0.033 -0.031 L 0.057 -0.031 Q 0.122 -0.031 0.132 -0.048 Q 0.136 -0.055 0.136 -0.078 L 0.136 -0.602 Q 0.136 -0.632 0.124 -0.64 Q 0.11 -0.649 0.057 -0.649 L 0.033 -0.649 L 0.033 -0.68 L 0.582 -0.68 Z"
                 id="path6" />
            </g>
            <g
               transform="translate(8.743408118363952,7.173492)"
               id="g7">
              <path
                 fill="rgb(0,0,0)"
                 stroke="none"
                 paint-order="stroke fill markers"
                 d=" M 0.333 -0.076 Q 0.308 -0.014 0.245 0.005 Q 0.225 0.011 0.202 0.011 Q 0.117 0.011 0.07100000000000001 -0.03 Q 0.042 -0.056 0.042 -0.095 Q 0.042 -0.17200000000000001 0.127 -0.218 Q 0.134 -0.222 0.14200000000000002 -0.225 Q 0.203 -0.254 0.321 -0.261 L 0.326 -0.261 L 0.326 -0.298 Q 0.326 -0.383 0.265 -0.41500000000000004 Q 0.244 -0.426 0.22 -0.426 Q 0.154 -0.426 0.11800000000000001 -0.387 Q 0.115 -0.383 0.112 -0.38 Q 0.159 -0.374 0.163 -0.334 Q 0.163 -0.3 0.132 -0.29 Q 0.125 -0.28800000000000003 0.117 -0.28800000000000003 Q 0.081 -0.28800000000000003 0.073 -0.321 Q 0.07100000000000001 -0.326 0.07100000000000001 -0.335 Q 0.07100000000000001 -0.395 0.134 -0.427 Q 0.17300000000000001 -0.448 0.222 -0.448 Q 0.304 -0.448 0.359 -0.393 Q 0.394 -0.357 0.395 -0.293 L 0.395 -0.292 L 0.395 -0.275 L 0.395 -0.075 Q 0.395 -0.046 0.41300000000000003 -0.032 Q 0.421 -0.025 0.432 -0.025 Q 0.467 -0.025 0.468 -0.089 L 0.468 -0.145 L 0.493 -0.145 L 0.493 -0.089 Q 0.493 -0.016 0.433 0.002 Q 0.421 0.006 0.41100000000000003 0.006 Q 0.362 0.006 0.341 -0.046 Q 0.335 -0.06 0.333 -0.076 M 0.326 -0.24 Q 0.17200000000000001 -0.234 0.13 -0.146 Q 0.11900000000000001 -0.122 0.11900000000000001 -0.096 Q 0.11900000000000001 -0.045 0.165 -0.021 Q 0.185 -0.011 0.209 -0.011 Q 0.261 -0.011 0.296 -0.052000000000000005 Q 0.326 -0.08600000000000001 0.326 -0.14 L 0.326 -0.24 Z"
                 id="path7" />
            </g>
            <g
               transform="translate(9.243408118363952,7.173492)"
               id="g8">
              <path
                 fill="rgb(0,0,0)"
                 stroke="none"
                 paint-order="stroke fill markers"
                 d=" M 0.457 -0.252 L 0.457 -0.061 Q 0.458 -0.037 0.486 -0.033 Q 0.498 -0.031 0.535 -0.031 L 0.535 0 Q 0.433 -0.003 0.423 -0.003 Q 0.41500000000000004 -0.003 0.31 0 L 0.31 -0.031 Q 0.369 -0.031 0.379 -0.04 L 0.381 -0.042 Q 0.388 -0.05 0.388 -0.076 L 0.388 -0.309 Q 0.388 -0.40800000000000003 0.331 -0.418 Q 0.323 -0.42 0.314 -0.42 Q 0.253 -0.42 0.212 -0.367 Q 0.179 -0.324 0.179 -0.26 L 0.179 -0.076 Q 0.179 -0.042 0.195 -0.036000000000000004 Q 0.20600000000000002 -0.031 0.257 -0.031 L 0.257 0 Q 0.155 -0.003 0.145 -0.003 Q 0.137 -0.003 0.032 0 L 0.032 -0.031 Q 0.091 -0.031 0.101 -0.04 L 0.10300000000000001 -0.042 Q 0.11 -0.05 0.11 -0.076 L 0.11 -0.596 Q 0.11 -0.635 0.096 -0.644 L 0.095 -0.644 Q 0.084 -0.65 0.057 -0.652 L 0.032 -0.652 L 0.032 -0.683 L 0.176 -0.6940000000000001 L 0.176 -0.34600000000000003 L 0.177 -0.34600000000000003 Q 0.20400000000000001 -0.40700000000000003 0.263 -0.431 Q 0.294 -0.441 0.321 -0.442 Q 0.396 -0.442 0.426 -0.405 Q 0.453 -0.374 0.456 -0.32 Q 0.457 -0.301 0.457 -0.252 Z"
                 id="path8" />
            </g>
            <g
               transform="translate(9.799408118363953,7.173492)"
               id="g9">
              <path
                 fill="rgb(0,0,0)"
                 stroke="none"
                 paint-order="stroke fill markers"
                 d=" M 0.177 -0.6940000000000001 L 0.177 -0.076 Q 0.177 -0.042 0.193 -0.036000000000000004 Q 0.20400000000000001 -0.031 0.255 -0.031 L 0.255 0 L 0.14400000000000002 -0.003 Q 0.132 -0.003 0.033 0 L 0.033 -0.031 Q 0.092 -0.031 0.10200000000000001 -0.04 L 0.10400000000000001 -0.042 Q 0.111 -0.05 0.111 -0.076 L 0.111 -0.596 Q 0.111 -0.635 0.097 -0.644 L 0.096 -0.644 Q 0.085 -0.65 0.058 -0.652 L 0.033 -0.652 L 0.033 -0.683 L 0.177 -0.6940000000000001 Z"
                 id="path9" />
            </g>
            <g
               transform="translate(10.077408118363952,7.173492000000001)"
               id="g10">
              <path
                 fill="rgb(0,0,0)"
                 stroke="none"
                 paint-order="stroke fill markers"
                 d=" M 0.537 -0.595 L 0.217 -0.595 Q 0.186 -0.595 0.183 -0.609 Q 0.182 -0.612 0.182 -0.615 Q 0.188 -0.635 0.217 -0.635 L 0.554 -0.635 Q 0.534 -0.661 0.53 -0.6930000000000001 Q 0.53 -0.709 0.544 -0.713 Q 0.547 -0.714 0.55 -0.714 Q 0.5650000000000001 -0.714 0.5700000000000001 -0.6920000000000001 Q 0.583 -0.654 0.611 -0.635 Q 0.625 -0.625 0.625 -0.615 Q 0.625 -0.604 0.608 -0.594 Q 0.5630000000000001 -0.5720000000000001 0.529 -0.529 Q 0.518 -0.516 0.51 -0.516 Q 0.496 -0.516 0.491 -0.53 Q 0.49 -0.533 0.49 -0.536 Q 0.49 -0.552 0.537 -0.595 Z"
                 id="path10" />
            </g>
            <g
               transform="translate(10.115408118363952,7.173492000000001)"
               id="g11">
              <path
                 fill="rgb(0,0,0)"
                 stroke="none"
                 paint-order="stroke fill markers"
                 d=" M 0.187 -0.231 L 0.134 -0.231 Q 0.11800000000000001 -0.166 0.11800000000000001 -0.127 Q 0.11800000000000001 -0.048 0.164 -0.021 Q 0.181 -0.011 0.20500000000000002 -0.011 Q 0.295 -0.011 0.367 -0.07100000000000001 Q 0.388 -0.088 0.405 -0.11 Q 0.41200000000000003 -0.12 0.418 -0.12 Q 0.427 -0.12 0.43 -0.107 Q 0.43 -0.096 0.396 -0.064 Q 0.313 0.011 0.203 0.011 Q 0.113 0.011 0.07100000000000001 -0.066 Q 0.046 -0.111 0.046 -0.17 Q 0.046 -0.301 0.148 -0.382 Q 0.223 -0.442 0.308 -0.442 Q 0.38 -0.442 0.406 -0.392 Q 0.41500000000000004 -0.376 0.41500000000000004 -0.357 Q 0.41500000000000004 -0.305 0.37 -0.271 L 0.369 -0.27 Q 0.356 -0.261 0.34 -0.254 Q 0.28500000000000003 -0.231 0.187 -0.231 M 0.14 -0.253 L 0.181 -0.253 Q 0.382 -0.253 0.382 -0.357 Q 0.382 -0.397 0.343 -0.41400000000000003 L 0.343 -0.41400000000000003 Q 0.329 -0.419 0.308 -0.42 Q 0.252 -0.42 0.20500000000000002 -0.374 Q 0.16 -0.33 0.14 -0.253 Z"
                 id="path11" />
            </g>
            <g
               transform="translate(10.581408118363951,7.173492)"
               id="g12">
              <path
                 fill="rgb(0,0,0)"
                 stroke="none"
                 paint-order="stroke fill markers"
                 d=" M 0.41600000000000004 -0.333 L 0.28500000000000003 -0.008 Q 0.277 0.011 0.264 0.011 Q 0.252 0.011 0.246 -0.001 Q 0.245 -0.003 0.243 -0.008 L 0.099 -0.363 Q 0.088 -0.389 0.075 -0.394 L 0.075 -0.395 Q 0.061 -0.4 0.019 -0.4 L 0.019 -0.431 Q 0.064 -0.428 0.116 -0.428 Q 0.135 -0.428 0.225 -0.431 L 0.225 -0.4 Q 0.168 -0.4 0.168 -0.374 Q 0.168 -0.37 0.17400000000000002 -0.357 L 0.28600000000000003 -0.078 L 0.388 -0.333 Q 0.394 -0.35000000000000003 0.394 -0.357 Q 0.394 -0.392 0.359 -0.399 Q 0.353 -0.4 0.34600000000000003 -0.4 L 0.34600000000000003 -0.431 Q 0.397 -0.428 0.433 -0.428 Q 0.47400000000000003 -0.428 0.508 -0.431 L 0.508 -0.4 Q 0.443 -0.399 0.418 -0.339 L 0.418 -0.338 Q 0.417 -0.336 0.41600000000000004 -0.333 Z"
                 id="path12" />
            </g>
            <g
               transform="translate(11.109408118363952,7.173492)"
               id="g13">
              <path
                 fill="rgb(0,0,0)"
                 stroke="none"
                 paint-order="stroke fill markers"
                 d=" M 0.177 -0.442 L 0.177 -0.442 L 0.177 -0.075 Q 0.177 -0.044 0.189 -0.037 L 0.189 -0.037 Q 0.201 -0.031 0.247 -0.031 L 0.247 0 Q 0.145 -0.003 0.14300000000000002 -0.003 Q 0.129 -0.003 0.033 0 L 0.033 -0.031 Q 0.092 -0.031 0.10200000000000001 -0.04 L 0.10400000000000001 -0.042 Q 0.111 -0.05 0.111 -0.076 L 0.111 -0.34500000000000003 Q 0.111 -0.385 0.095 -0.393 L 0.094 -0.393 L 0.094 -0.393 L 0.093 -0.394 L 0.093 -0.394 Q 0.08 -0.4 0.037 -0.4 L 0.037 -0.431 L 0.177 -0.442 M 0.181 -0.616 Q 0.181 -0.579 0.148 -0.5670000000000001 Q 0.138 -0.5630000000000001 0.128 -0.5630000000000001 Q 0.093 -0.5630000000000001 0.079 -0.595 L 0.079 -0.596 Q 0.075 -0.606 0.075 -0.616 Q 0.075 -0.647 0.10300000000000001 -0.662 Q 0.114 -0.669 0.128 -0.669 Q 0.162 -0.669 0.176 -0.639 Q 0.181 -0.628 0.181 -0.616 Z"
                 id="path13" />
            </g>
            <g
               transform="translate(11.387408118363952,7.173492)"
               id="g14">
              <path
                 fill="rgb(0,0,0)"
                 stroke="none"
                 paint-order="stroke fill markers"
                 d=" M 0.20800000000000002 -0.194 L 0.20800000000000002 -0.194 Q 0.122 -0.211 0.095 -0.227 Q 0.085 -0.232 0.076 -0.24 Q 0.033 -0.275 0.033 -0.325 Q 0.033 -0.395 0.095 -0.427 Q 0.134 -0.448 0.193 -0.448 Q 0.249 -0.448 0.28700000000000003 -0.42 Q 0.298 -0.429 0.304 -0.436 Q 0.317 -0.448 0.324 -0.448 Q 0.334 -0.439 0.335 -0.424 L 0.335 -0.323 Q 0.335 -0.302 0.329 -0.3 L 0.328 -0.3 L 0.327 -0.299 L 0.322 -0.299 Q 0.311 -0.299 0.31 -0.308 Q 0.303 -0.40900000000000003 0.227 -0.426 Q 0.211 -0.429 0.193 -0.429 Q 0.099 -0.429 0.083 -0.371 Q 0.081 -0.362 0.081 -0.353 Q 0.081 -0.302 0.158 -0.281 Q 0.17300000000000001 -0.277 0.20400000000000001 -0.271 Q 0.276 -0.257 0.307 -0.232 Q 0.313 -0.228 0.318 -0.223 Q 0.36 -0.181 0.36 -0.128 Q 0.36 -0.043000000000000003 0.29 -0.008 Q 0.252 0.011 0.199 0.011 Q 0.134 0.011 0.089 -0.032 L 0.069 -0.009000000000000001 Q 0.049 0.011 0.044 0.011 Q 0.034 0.002 0.033 -0.013000000000000001 L 0.033 -0.145 Q 0.033 -0.167 0.04 -0.169 L 0.04 -0.169 L 0.041 -0.17 L 0.046 -0.17 Q 0.056 -0.17 0.059000000000000004 -0.159 Q 0.059000000000000004 -0.157 0.06 -0.153 Q 0.08600000000000001 -0.037 0.159 -0.016 Q 0.177 -0.011 0.199 -0.011 Q 0.289 -0.011 0.308 -0.074 Q 0.312 -0.08700000000000001 0.312 -0.10200000000000001 Q 0.312 -0.17500000000000002 0.20800000000000002 -0.194 Z"
                 id="path14" />
            </g>
            <g
               transform="translate(11.781408118363952,7.173492)"
               id="g15">
              <path
                 fill="rgb(0,0,0)"
                 stroke="none"
                 paint-order="stroke fill markers"
                 d=" M 0.177 -0.442 L 0.177 -0.442 L 0.177 -0.075 Q 0.177 -0.044 0.189 -0.037 L 0.189 -0.037 Q 0.201 -0.031 0.247 -0.031 L 0.247 0 Q 0.145 -0.003 0.14300000000000002 -0.003 Q 0.129 -0.003 0.033 0 L 0.033 -0.031 Q 0.092 -0.031 0.10200000000000001 -0.04 L 0.10400000000000001 -0.042 Q 0.111 -0.05 0.111 -0.076 L 0.111 -0.34500000000000003 Q 0.111 -0.385 0.095 -0.393 L 0.094 -0.393 L 0.094 -0.393 L 0.093 -0.394 L 0.093 -0.394 Q 0.08 -0.4 0.037 -0.4 L 0.037 -0.431 L 0.177 -0.442 M 0.181 -0.616 Q 0.181 -0.579 0.148 -0.5670000000000001 Q 0.138 -0.5630000000000001 0.128 -0.5630000000000001 Q 0.093 -0.5630000000000001 0.079 -0.595 L 0.079 -0.596 Q 0.075 -0.606 0.075 -0.616 Q 0.075 -0.647 0.10300000000000001 -0.662 Q 0.114 -0.669 0.128 -0.669 Q 0.162 -0.669 0.176 -0.639 Q 0.181 -0.628 0.181 -0.616 Z"
                 id="path15" />
            </g>
            <g
               transform="translate(12.059408118363953,7.173492)"
               id="g16">
              <path
                 fill="rgb(0,0,0)"
                 stroke="none"
                 paint-order="stroke fill markers"
                 d=" M 0.333 -0.076 Q 0.308 -0.014 0.245 0.005 Q 0.225 0.011 0.202 0.011 Q 0.117 0.011 0.07100000000000001 -0.03 Q 0.042 -0.056 0.042 -0.095 Q 0.042 -0.17200000000000001 0.127 -0.218 Q 0.134 -0.222 0.14200000000000002 -0.225 Q 0.203 -0.254 0.321 -0.261 L 0.326 -0.261 L 0.326 -0.298 Q 0.326 -0.383 0.265 -0.41500000000000004 Q 0.244 -0.426 0.22 -0.426 Q 0.154 -0.426 0.11800000000000001 -0.387 Q 0.115 -0.383 0.112 -0.38 Q 0.159 -0.374 0.163 -0.334 Q 0.163 -0.3 0.132 -0.29 Q 0.125 -0.28800000000000003 0.117 -0.28800000000000003 Q 0.081 -0.28800000000000003 0.073 -0.321 Q 0.07100000000000001 -0.326 0.07100000000000001 -0.335 Q 0.07100000000000001 -0.395 0.134 -0.427 Q 0.17300000000000001 -0.448 0.222 -0.448 Q 0.304 -0.448 0.359 -0.393 Q 0.394 -0.357 0.395 -0.293 L 0.395 -0.292 L 0.395 -0.275 L 0.395 -0.075 Q 0.395 -0.046 0.41300000000000003 -0.032 Q 0.421 -0.025 0.432 -0.025 Q 0.467 -0.025 0.468 -0.089 L 0.468 -0.145 L 0.493 -0.145 L 0.493 -0.089 Q 0.493 -0.016 0.433 0.002 Q 0.421 0.006 0.41100000000000003 0.006 Q 0.362 0.006 0.341 -0.046 Q 0.335 -0.06 0.333 -0.076 M 0.326 -0.24 Q 0.17200000000000001 -0.234 0.13 -0.146 Q 0.11900000000000001 -0.122 0.11900000000000001 -0.096 Q 0.11900000000000001 -0.045 0.165 -0.021 Q 0.185 -0.011 0.209 -0.011 Q 0.261 -0.011 0.296 -0.052000000000000005 Q 0.326 -0.08600000000000001 0.326 -0.14 L 0.326 -0.24 Z"
                 id="path16" />
            </g>
            <g
               transform="translate(12.559408118363951,6.7757676) scale(0.7,0.7)"
               id="g17">
              <path
                 fill="rgb(0,0,0)"
                 stroke="none"
                 paint-order="stroke fill markers"
                 d=" M 0.261 -0.229 L 0.261 -0.229 L 0.275 -0.07100000000000001 Q 0.278 -0.034 0.249 -0.034 Q 0.231 -0.034 0.225 -0.05 Q 0.223 -0.055 0.224 -0.061 L 0.224 -0.066 L 0.23800000000000002 -0.23 L 0.112 -0.137 Q 0.1 -0.128 0.092 -0.128 Q 0.074 -0.128 0.067 -0.146 Q 0.065 -0.151 0.065 -0.156 Q 0.065 -0.17300000000000001 0.08600000000000001 -0.182 L 0.227 -0.25 L 0.08600000000000001 -0.317 Q 0.065 -0.326 0.065 -0.343 Q 0.065 -0.362 0.084 -0.369 Q 0.088 -0.371 0.092 -0.371 Q 0.098 -0.371 0.112 -0.361 L 0.23800000000000002 -0.269 L 0.224 -0.428 L 0.224 -0.439 Q 0.22 -0.455 0.23800000000000002 -0.462 L 0.23900000000000002 -0.463 L 0.24 -0.463 Q 0.245 -0.465 0.25 -0.465 Q 0.278 -0.465 0.275 -0.429 L 0.261 -0.269 L 0.387 -0.362 Q 0.399 -0.371 0.40700000000000003 -0.371 Q 0.425 -0.371 0.432 -0.353 Q 0.434 -0.34800000000000003 0.434 -0.343 Q 0.434 -0.326 0.41300000000000003 -0.317 L 0.271 -0.249 L 0.41600000000000004 -0.181 Q 0.434 -0.17200000000000001 0.434 -0.156 Q 0.434 -0.137 0.41500000000000004 -0.13 Q 0.41100000000000003 -0.128 0.40700000000000003 -0.128 Q 0.399 -0.128 0.37 -0.15 L 0.261 -0.229 Z"
                 id="path17" />
            </g>
            <rect
               fill="rgb(0,0,0)"
               stroke="none"
               x="6.584157623196571"
               y="7.580000500000001"
               width="7.039955555555556"
               height="0.039999"
               id="rect17" />
            <g
               transform="translate(6.584157623196571,8.535951)"
               id="g18">
              <path
                 fill="rgb(0,0,0)"
                 stroke="none"
                 paint-order="stroke fill markers"
                 d=" M 0.261 -0.229 L 0.261 -0.229 L 0.275 -0.07100000000000001 Q 0.278 -0.034 0.249 -0.034 Q 0.231 -0.034 0.225 -0.05 Q 0.223 -0.055 0.224 -0.061 L 0.224 -0.066 L 0.23800000000000002 -0.23 L 0.112 -0.137 Q 0.1 -0.128 0.092 -0.128 Q 0.074 -0.128 0.067 -0.146 Q 0.065 -0.151 0.065 -0.156 Q 0.065 -0.17300000000000001 0.08600000000000001 -0.182 L 0.227 -0.25 L 0.08600000000000001 -0.317 Q 0.065 -0.326 0.065 -0.343 Q 0.065 -0.362 0.084 -0.369 Q 0.088 -0.371 0.092 -0.371 Q 0.098 -0.371 0.112 -0.361 L 0.23800000000000002 -0.269 L 0.224 -0.428 L 0.224 -0.439 Q 0.22 -0.455 0.23800000000000002 -0.462 L 0.23900000000000002 -0.463 L 0.24 -0.463 Q 0.245 -0.465 0.25 -0.465 Q 0.278 -0.465 0.275 -0.429 L 0.261 -0.269 L 0.387 -0.362 Q 0.399 -0.371 0.40700000000000003 -0.371 Q 0.425 -0.371 0.432 -0.353 Q 0.434 -0.34800000000000003 0.434 -0.343 Q 0.434 -0.326 0.41300000000000003 -0.317 L 0.271 -0.249 L 0.41600000000000004 -0.181 Q 0.434 -0.17200000000000001 0.434 -0.156 Q 0.434 -0.137 0.41500000000000004 -0.13 Q 0.41100000000000003 -0.128 0.40700000000000003 -0.128 Q 0.399 -0.128 0.37 -0.15 L 0.261 -0.229 Z"
                 id="path18" />
            </g>
            <g
               transform="translate(7.361935400974349,8.535951)"
               id="g19">
              <path
                 fill="rgb(0,0,0)"
                 stroke="none"
                 paint-order="stroke fill markers"
                 d=" M 0.192 -0.378 Q 0.192 -0.34500000000000003 0.162 -0.33 Q 0.151 -0.325 0.139 -0.325 Q 0.106 -0.325 0.091 -0.355 Q 0.08600000000000001 -0.366 0.08600000000000001 -0.378 Q 0.08600000000000001 -0.41100000000000003 0.116 -0.426 Q 0.127 -0.431 0.139 -0.431 Q 0.17200000000000001 -0.431 0.187 -0.401 Q 0.192 -0.39 0.192 -0.378 M 0.192 -0.053 L 0.192 -0.053 Q 0.192 -0.02 0.162 -0.005 Q 0.151 0 0.139 0 Q 0.106 0 0.091 -0.03 Q 0.08600000000000001 -0.041 0.08600000000000001 -0.053 Q 0.08600000000000001 -0.08600000000000001 0.116 -0.101 Q 0.127 -0.106 0.139 -0.106 Q 0.17200000000000001 -0.106 0.187 -0.076 Q 0.192 -0.065 0.192 -0.053 Z"
                 id="path19" />
            </g>
            <g
               transform="translate(7.917713178752126,8.535951)"
               id="g20">
              <path
                 fill="rgb(0,0,0)"
                 stroke="none"
                 paint-order="stroke fill markers"
                 d=" M 0.5720000000000001 -0.7030000000000001 L 0.5720000000000001 -0.7030000000000001 L 0.708 -0.459 Q 0.714 -0.448 0.714 -0.445 Q 0.714 -0.438 0.706 -0.434 Q 0.586 -0.364 0.541 -0.352 Q 0.554 -0.153 0.554 -0.127 L 0.55 -0.094 L 0.55 -0.093 Q 0.55 -0.041 0.596 -0.011 L 0.64 -0.046 Q 0.676 -0.077 0.683 -0.077 Q 0.6930000000000001 -0.077 0.7000000000000001 -0.068 Q 0.7020000000000001 -0.065 0.7020000000000001 -0.062 Q 0.7020000000000001 -0.059000000000000004 0.685 -0.044 L 0.617 0.008 Q 0.598 0.022 0.583 0.022 Q 0.519 0.022 0.486 -0.03 Q 0.467 -0.059000000000000004 0.467 -0.093 L 0.47100000000000003 -0.126 L 0.47100000000000003 -0.127 L 0.461 -0.305 Q 0.458 -0.343 0.457 -0.34400000000000003 Q 0.455 -0.34500000000000003 0.44 -0.34500000000000003 L 0.343 -0.34500000000000003 L 0.343 -0.246 Q 0.343 -0.125 0.291 -0.043000000000000003 Q 0.25 0.022 0.194 0.022 Q 0.117 0.022 0.075 -0.085 Q 0.06 -0.079 0.058 -0.078 Q 0.046 -0.08 0.046 -0.09 Q 0.046 -0.1 0.067 -0.105 Q 0.063 -0.117 0.063 -0.11800000000000001 Q 0.063 -0.127 0.076 -0.131 Q 0.085 -0.131 0.09 -0.114 Q 0.10400000000000001 -0.121 0.11 -0.121 Q 0.117 -0.121 0.121 -0.11 Q 0.121 -0.101 0.098 -0.094 Q 0.132 0 0.193 0 Q 0.25 0 0.259 -0.168 Q 0.26 -0.189 0.26 -0.209 L 0.26 -0.47600000000000003 Q 0.26 -0.625 0.202 -0.67 Q 0.185 -0.683 0.166 -0.683 Q 0.12 -0.683 0.097 -0.634 Q 0.08600000000000001 -0.612 0.08600000000000001 -0.587 Q 0.08600000000000001 -0.559 0.123 -0.527 Q 0.194 -0.458 0.194 -0.394 Q 0.194 -0.256 0.126 -0.244 Q 0.12 -0.243 0.114 -0.243 Q 0.066 -0.243 0.057 -0.308 Q 0.056 -0.316 0.056 -0.321 Q 0.056 -0.336 0.069 -0.336 Q 0.081 -0.336 0.081 -0.321 Q 0.084 -0.265 0.113 -0.265 Q 0.158 -0.265 0.161 -0.357 Q 0.162 -0.369 0.162 -0.383 Q 0.162 -0.422 0.148 -0.444 Q 0.137 -0.463 0.109 -0.491 Q 0.064 -0.536 0.058 -0.5670000000000001 Q 0.056 -0.5760000000000001 0.056 -0.585 Q 0.056 -0.644 0.1 -0.68 Q 0.129 -0.705 0.167 -0.705 Q 0.243 -0.705 0.297 -0.621 Q 0.303 -0.612 0.308 -0.602 Q 0.361 -0.6910000000000001 0.5 -0.712 Q 0.529 -0.716 0.549 -0.716 Q 0.5640000000000001 -0.716 0.5690000000000001 -0.709 L 0.5690000000000001 -0.708 L 0.5700000000000001 -0.707 L 0.5700000000000001 -0.706 Q 0.5710000000000001 -0.705 0.5720000000000001 -0.7030000000000001 M 0.624 -0.439 L 0.496 -0.668 Q 0.49 -0.678 0.487 -0.678 Q 0.467 -0.678 0.423 -0.659 Q 0.34500000000000003 -0.625 0.324 -0.5630000000000001 Q 0.343 -0.507 0.343 -0.447 L 0.343 -0.376 L 0.49 -0.376 Q 0.526 -0.376 0.5700000000000001 -0.396 Q 0.611 -0.41200000000000003 0.63 -0.428 L 0.624 -0.439 Z"
                 id="path20" />
            </g>
            <g
               transform="translate(8.639713178752126,8.535951) scale(0.8,0.8)"
               id="g21">
              <path
                 fill="rgb(0,0,0)"
                 stroke="none"
                 paint-order="stroke fill markers"
                 d=" M 0.652 -0.258 L 0.61 0 L 0.033 0 L 0.033 -0.031 L 0.057 -0.031 Q 0.122 -0.031 0.132 -0.048 Q 0.136 -0.055 0.136 -0.078 L 0.136 -0.602 Q 0.136 -0.632 0.124 -0.64 Q 0.11 -0.649 0.057 -0.649 L 0.033 -0.649 L 0.033 -0.68 L 0.596 -0.68 L 0.624 -0.455 L 0.599 -0.455 Q 0.586 -0.5650000000000001 0.553 -0.603 Q 0.513 -0.649 0.403 -0.649 L 0.274 -0.649 Q 0.23500000000000001 -0.649 0.228 -0.637 L 0.228 -0.636 L 0.228 -0.636 L 0.228 -0.635 Q 0.225 -0.629 0.225 -0.609 L 0.225 -0.369 L 0.315 -0.369 Q 0.392 -0.369 0.41100000000000003 -0.403 L 0.41100000000000003 -0.403 Q 0.41600000000000004 -0.41200000000000003 0.418 -0.425 Q 0.423 -0.445 0.423 -0.486 L 0.448 -0.486 L 0.448 -0.221 L 0.423 -0.221 Q 0.423 -0.294 0.402 -0.315 Q 0.379 -0.338 0.315 -0.338 L 0.225 -0.338 L 0.225 -0.07100000000000001 Q 0.225 -0.041 0.23600000000000002 -0.036000000000000004 L 0.23700000000000002 -0.036000000000000004 Q 0.246 -0.031 0.274 -0.031 L 0.40700000000000003 -0.031 Q 0.529 -0.031 0.5740000000000001 -0.089 Q 0.603 -0.127 0.62 -0.22 L 0.627 -0.258 L 0.652 -0.258 Z"
                 id="path21" />
            </g>
            <g
               transform="translate(9.184513178752127,8.535951) scale(0.8,0.8)"
               id="g22">
              <path
                 fill="rgb(0,0,0)"
                 stroke="none"
                 paint-order="stroke fill markers"
                 d=" M 0.227 -0.316 L 0.227 -0.078 Q 0.227 -0.048 0.23900000000000002 -0.04 Q 0.253 -0.031 0.306 -0.031 L 0.33 -0.031 L 0.33 0 Q 0.295 -0.003 0.182 -0.003 Q 0.07 -0.003 0.035 0 L 0.035 -0.031 L 0.059000000000000004 -0.031 Q 0.124 -0.031 0.134 -0.048 Q 0.138 -0.055 0.138 -0.078 L 0.138 -0.605 Q 0.138 -0.635 0.126 -0.643 Q 0.112 -0.652 0.059000000000000004 -0.652 L 0.035 -0.652 L 0.035 -0.683 L 0.388 -0.683 Q 0.504 -0.683 0.5740000000000001 -0.611 Q 0.624 -0.561 0.624 -0.497 Q 0.624 -0.418 0.547 -0.363 Q 0.481 -0.316 0.396 -0.316 L 0.227 -0.316 M 0.224 -0.342 L 0.362 -0.342 Q 0.514 -0.342 0.521 -0.47400000000000003 L 0.521 -0.497 Q 0.521 -0.578 0.485 -0.613 Q 0.445 -0.652 0.362 -0.652 L 0.273 -0.652 Q 0.234 -0.652 0.227 -0.64 L 0.227 -0.639 L 0.227 -0.639 L 0.227 -0.638 Q 0.224 -0.632 0.224 -0.612 L 0.224 -0.342 Z"
                 id="path22" />
            </g>
            <g
               transform="translate(9.757313178752128,8.535951) scale(0.8,0.8)"
               id="g23">
              <path
                 fill="rgb(0,0,0)"
                 stroke="none"
                 paint-order="stroke fill markers"
                 d=" M 0.721 -0.339 Q 0.721 -0.19 0.624 -0.084 Q 0.532 0.016 0.401 0.022 L 0.388 0.022 Q 0.259 0.022 0.163 -0.074 Q 0.062 -0.17400000000000002 0.056 -0.323 L 0.056 -0.339 Q 0.056 -0.491 0.154 -0.598 Q 0.246 -0.6990000000000001 0.374 -0.705 L 0.388 -0.705 Q 0.519 -0.705 0.616 -0.606 Q 0.715 -0.504 0.721 -0.356 L 0.721 -0.339 M 0.389 -0.004 L 0.389 -0.004 Q 0.47200000000000003 -0.004 0.534 -0.075 Q 0.618 -0.17 0.618 -0.353 Q 0.618 -0.5630000000000001 0.498 -0.644 Q 0.446 -0.68 0.388 -0.68 Q 0.308 -0.68 0.245 -0.617 L 0.245 -0.616 Q 0.159 -0.528 0.159 -0.353 Q 0.159 -0.137 0.272 -0.047 Q 0.326 -0.004 0.389 -0.004 Z"
                 id="path23" />
            </g>
            <g
               transform="translate(10.379713178752128,8.535951) scale(0.8,0.8)"
               id="g24">
              <path
                 fill="rgb(0,0,0)"
                 stroke="none"
                 paint-order="stroke fill markers"
                 d=" M 0.34900000000000003 -0.388 L 0.34900000000000003 -0.388 Q 0.428 -0.369 0.47100000000000003 -0.294 Q 0.499 -0.244 0.499 -0.186 Q 0.499 -0.091 0.433 -0.029 Q 0.378 0.022 0.302 0.022 Q 0.194 0.022 0.128 -0.038 L 0.128 -0.038 L 0.11800000000000001 -0.048 Q 0.082 0.01 0.082 0.009000000000000001 Q 0.074 0.022 0.067 0.022 Q 0.057 0.013000000000000001 0.056 -0.002 L 0.056 -0.202 Q 0.056 -0.224 0.063 -0.226 L 0.063 -0.226 L 0.064 -0.227 L 0.069 -0.227 Q 0.08 -0.227 0.081 -0.217 Q 0.084 -0.121 0.139 -0.067 L 0.14300000000000002 -0.063 Q 0.201 -0.009000000000000001 0.301 -0.009000000000000001 Q 0.376 -0.009000000000000001 0.41400000000000003 -0.075 Q 0.435 -0.111 0.435 -0.152 Q 0.435 -0.20600000000000002 0.404 -0.244 Q 0.377 -0.28 0.326 -0.293 L 0.325 -0.294 Q 0.325 -0.293 0.319 -0.295 Q 0.195 -0.325 0.187 -0.328 Q 0.108 -0.355 0.073 -0.431 Q 0.056 -0.46900000000000003 0.056 -0.511 Q 0.056 -0.602 0.125 -0.66 Q 0.179 -0.705 0.251 -0.705 Q 0.336 -0.705 0.398 -0.648 L 0.41100000000000003 -0.635 L 0.446 -0.6920000000000001 Q 0.453 -0.705 0.461 -0.705 Q 0.47100000000000003 -0.6960000000000001 0.47200000000000003 -0.681 L 0.47200000000000003 -0.48 Q 0.47200000000000003 -0.459 0.466 -0.457 L 0.465 -0.457 L 0.464 -0.456 L 0.459 -0.456 Q 0.449 -0.456 0.447 -0.468 Q 0.419 -0.675 0.252 -0.677 Q 0.18 -0.677 0.14200000000000002 -0.619 L 0.14100000000000001 -0.618 Q 0.12 -0.585 0.12 -0.546 Q 0.12 -0.48 0.17300000000000001 -0.441 Q 0.194 -0.425 0.221 -0.419 L 0.34900000000000003 -0.388 Z"
                 id="path24" />
            </g>
            <g
               transform="translate(10.82451317875213,8.535951) scale(0.8,0.8)"
               id="g25">
              <path
                 fill="rgb(0,0,0)"
                 stroke="none"
                 paint-order="stroke fill markers"
                 d=" M 0.225 -0.605 L 0.225 -0.605 L 0.225 -0.078 Q 0.225 -0.048 0.23700000000000002 -0.04 L 0.23800000000000002 -0.04 L 0.23800000000000002 -0.04 L 0.23900000000000002 -0.04 L 0.23900000000000002 -0.039 L 0.24 -0.039 Q 0.255 -0.031 0.307 -0.031 L 0.333 -0.031 L 0.333 0 Q 0.298 -0.003 0.18 -0.003 Q 0.063 -0.003 0.028 0 L 0.028 -0.031 L 0.054 -0.031 Q 0.121 -0.031 0.131 -0.048 L 0.131 -0.048 Q 0.136 -0.056 0.136 -0.078 L 0.136 -0.605 Q 0.136 -0.635 0.124 -0.643 L 0.123 -0.643 Q 0.108 -0.652 0.054 -0.652 L 0.028 -0.652 L 0.028 -0.683 Q 0.063 -0.68 0.181 -0.68 Q 0.298 -0.68 0.333 -0.683 L 0.333 -0.652 L 0.307 -0.652 Q 0.24 -0.652 0.23 -0.635 L 0.23 -0.635 Q 0.225 -0.627 0.225 -0.605 Z"
                 id="path25" />
            </g>
            <g
               transform="translate(11.11331317875213,8.535951) scale(0.8,0.8)"
               id="g26">
              <path
                 fill="rgb(0,0,0)"
                 stroke="none"
                 paint-order="stroke fill markers"
                 d=" M 0.666 -0.677 L 0.685 -0.452 L 0.66 -0.452 Q 0.65 -0.5660000000000001 0.628 -0.6 L 0.628 -0.601 Q 0.603 -0.639 0.525 -0.645 Q 0.506 -0.646 0.48 -0.646 Q 0.434 -0.646 0.423 -0.644 Q 0.406 -0.631 0.405 -0.606 L 0.405 -0.079 Q 0.405 -0.051000000000000004 0.417 -0.043000000000000003 Q 0.436 -0.031 0.51 -0.031 L 0.55 -0.031 L 0.55 0 Q 0.509 -0.003 0.36 -0.003 Q 0.212 -0.003 0.171 0 L 0.171 -0.031 L 0.211 -0.031 Q 0.299 -0.031 0.311 -0.05 Q 0.314 -0.055 0.315 -0.062 Q 0.316 -0.067 0.316 -0.079 L 0.316 -0.606 Q 0.316 -0.634 0.307 -0.64 L 0.306 -0.64 L 0.305 -0.641 L 0.304 -0.641 Q 0.301 -0.643 0.295 -0.644 Q 0.28500000000000003 -0.646 0.241 -0.646 Q 0.139 -0.646 0.106 -0.616 L 0.10200000000000001 -0.612 L 0.101 -0.611 L 0.101 -0.611 Q 0.074 -0.581 0.064 -0.481 Q 0.062 -0.46900000000000003 0.061 -0.452 L 0.036000000000000004 -0.452 L 0.055 -0.677 L 0.666 -0.677 Z"
                 id="path26" />
            </g>
            <g
               transform="translate(11.69091317875213,8.535951) scale(0.8,0.8)"
               id="g27">
              <path
                 fill="rgb(0,0,0)"
                 stroke="none"
                 paint-order="stroke fill markers"
                 d=" M 0.721 -0.339 Q 0.721 -0.19 0.624 -0.084 Q 0.532 0.016 0.401 0.022 L 0.388 0.022 Q 0.259 0.022 0.163 -0.074 Q 0.062 -0.17400000000000002 0.056 -0.323 L 0.056 -0.339 Q 0.056 -0.491 0.154 -0.598 Q 0.246 -0.6990000000000001 0.374 -0.705 L 0.388 -0.705 Q 0.519 -0.705 0.616 -0.606 Q 0.715 -0.504 0.721 -0.356 L 0.721 -0.339 M 0.389 -0.004 L 0.389 -0.004 Q 0.47200000000000003 -0.004 0.534 -0.075 Q 0.618 -0.17 0.618 -0.353 Q 0.618 -0.5630000000000001 0.498 -0.644 Q 0.446 -0.68 0.388 -0.68 Q 0.308 -0.68 0.245 -0.617 L 0.245 -0.616 Q 0.159 -0.528 0.159 -0.353 Q 0.159 -0.137 0.272 -0.047 Q 0.326 -0.004 0.389 -0.004 Z"
                 id="path27" />
            </g>
            <g
               transform="translate(12.31331317875213,8.535951) scale(0.8,0.8)"
               id="g28">
              <path
                 fill="rgb(0,0,0)"
                 stroke="none"
                 paint-order="stroke fill markers"
                 d=" M 0.224 -0.353 L 0.335 -0.353 Q 0.502 -0.363 0.507 -0.503 Q 0.507 -0.623 0.398 -0.645 Q 0.366 -0.652 0.305 -0.652 Q 0.256 -0.652 0.246 -0.65 Q 0.227 -0.647 0.225 -0.629 L 0.224 -0.628 L 0.224 -0.628 L 0.224 -0.627 L 0.224 -0.612 L 0.224 -0.353 M 0.435 -0.34 Q 0.534 -0.306 0.557 -0.224 L 0.5700000000000001 -0.14400000000000002 Q 0.585 -0.044 0.601 -0.021 Q 0.607 -0.012 0.615 -0.007 Q 0.626 0 0.641 0 Q 0.684 0 0.7010000000000001 -0.054 Q 0.705 -0.069 0.707 -0.089 Q 0.709 -0.10400000000000001 0.719 -0.105 Q 0.732 -0.105 0.732 -0.088 Q 0.732 -0.041 0.7030000000000001 -0.007 Q 0.6990000000000001 -0.002 0.6940000000000001 0.002 Q 0.671 0.022 0.637 0.022 Q 0.559 0.022 0.511 -0.02 Q 0.47400000000000003 -0.054 0.47100000000000003 -0.115 Q 0.47000000000000003 -0.137 0.47000000000000003 -0.163 Q 0.47000000000000003 -0.23700000000000002 0.458 -0.262 Q 0.45 -0.28 0.432 -0.297 Q 0.397 -0.331 0.339 -0.331 L 0.224 -0.331 L 0.224 -0.078 Q 0.224 -0.048 0.23600000000000002 -0.04 Q 0.25 -0.031 0.303 -0.031 L 0.327 -0.031 L 0.327 0 Q 0.291 -0.003 0.181 -0.003 Q 0.07100000000000001 -0.003 0.035 0 L 0.035 -0.031 L 0.059000000000000004 -0.031 Q 0.124 -0.031 0.134 -0.048 Q 0.138 -0.055 0.138 -0.078 L 0.138 -0.605 Q 0.138 -0.635 0.126 -0.643 Q 0.112 -0.652 0.059000000000000004 -0.652 L 0.035 -0.652 L 0.035 -0.683 L 0.34900000000000003 -0.683 Q 0.47400000000000003 -0.683 0.552 -0.615 Q 0.61 -0.5650000000000001 0.61 -0.503 Q 0.61 -0.426 0.52 -0.374 Q 0.482 -0.352 0.435 -0.34 Z"
                 id="path28" />
            </g>
            <g
               transform="translate(12.902113178752128,8.535951)"
               id="g29">
              <path
                 fill="rgb(0,0,0)"
                 stroke="none"
                 paint-order="stroke fill markers"
                 d=" M 0.28700000000000003 -0.336 Q 0.28700000000000003 -0.325 0.27 -0.325 Q 0.189 -0.325 0.124 -0.377 Q 0.056 -0.432 0.056 -0.515 Q 0.056 -0.605 0.133 -0.661 Q 0.194 -0.705 0.273 -0.705 Q 0.389 -0.705 0.47700000000000004 -0.623 Q 0.516 -0.587 0.542 -0.538 Q 0.56 -0.503 0.5690000000000001 -0.499 L 0.5700000000000001 -0.499 Q 0.5750000000000001 -0.497 0.582 -0.497 Q 0.637 -0.497 0.656 -0.528 Q 0.66 -0.536 0.662 -0.546 Q 0.663 -0.557 0.677 -0.558 Q 0.6930000000000001 -0.558 0.6930000000000001 -0.545 Q 0.6930000000000001 -0.504 0.64 -0.485 Q 0.613 -0.47500000000000003 0.58 -0.47500000000000003 Q 0.501 -0.47500000000000003 0.433 -0.553 L 0.406 -0.587 Q 0.357 -0.65 0.328 -0.667 Q 0.302 -0.683 0.27 -0.683 Q 0.187 -0.683 0.131 -0.624 L 0.13 -0.623 Q 0.08700000000000001 -0.577 0.08700000000000001 -0.515 Q 0.08700000000000001 -0.44 0.149 -0.39 Q 0.198 -0.35100000000000003 0.271 -0.34700000000000003 Q 0.28600000000000003 -0.34500000000000003 0.28700000000000003 -0.336 M 0.081 -0.183 L 0.124 -0.183 Q 0.189 -0.183 0.251 -0.132 Q 0.261 -0.124 0.272 -0.114 L 0.273 -0.113 L 0.3 -0.088 Q 0.381 -0.012 0.419 -0.012 Q 0.447 -0.012 0.485 -0.039 Q 0.541 -0.079 0.541 -0.139 Q 0.541 -0.171 0.502 -0.216 L 0.498 -0.22 Q 0.452 -0.28 0.449 -0.316 Q 0.449 -0.377 0.505 -0.41100000000000003 Q 0.538 -0.431 0.578 -0.431 Q 0.644 -0.431 0.678 -0.384 Q 0.6930000000000001 -0.363 0.6930000000000001 -0.34 Q 0.6930000000000001 -0.326 0.677 -0.326 Q 0.663 -0.326 0.662 -0.337 Q 0.655 -0.396 0.595 -0.40700000000000003 Q 0.587 -0.40900000000000003 0.58 -0.40900000000000003 Q 0.534 -0.403 0.532 -0.32 Q 0.532 -0.289 0.553 -0.26 L 0.554 -0.259 Q 0.561 -0.25 0.5700000000000001 -0.24 Q 0.613 -0.191 0.621 -0.163 Q 0.624 -0.151 0.624 -0.139 Q 0.624 -0.077 0.5730000000000001 -0.033 Q 0.523 0.009000000000000001 0.44 0.011 L 0.439 0.011 L 0.438 0.011 L 0.417 0.011 Q 0.35100000000000003 0.011 0.322 -0.002 Q 0.28400000000000003 -0.018000000000000002 0.215 -0.081 Q 0.14400000000000002 -0.145 0.099 -0.157 Q 0.088 -0.16 0.076 -0.161 Q 0.058 -0.162 0.056 -0.17200000000000001 Q 0.065 -0.182 0.081 -0.183 Z"
                 id="path29" />
            </g>
            <g
               transform="translate(13.824937468615365,6.44)"
               id="g30">
              <path
                 fill="rgb(0,0,0)"
                 stroke="none"
                 paint-order="stroke fill markers"
                 d=" M 0.05615234375 2.33203125 Q 0.05615234375 2.32861328125 0.05810546875 2.32177734375 L 0.93505859375 -0.02294921875 Q 0.943359375 -0.0400390625 0.9599609375 -0.0400390625 Q 0.97119140625 -0.0400390625 0.97900390625 -0.0322265625 Q 0.98681640625 -0.0244140625 0.98681640625 -0.01318359375 Q 0.98681640625 -0.0087890625 0.98486328125 -0.0029296875 L 0.10791015625 2.341796875 Q 0.099609375 2.35888671875 0.0830078125 2.35888671875 Q 0.07177734375 2.35888671875 0.06396484375 2.35107421875 Q 0.05615234375 2.34326171875 0.05615234375 2.33203125 Z"
                 id="path30" />
            </g>
            <g
               transform="translate(14.868937468615364,6.44)"
               id="g31">
              <path
                 fill="rgb(0,0,0)"
                 stroke="none"
                 paint-order="stroke fill markers"
                 d=" M 0.09619140625 2.3310546875 Q 0.09619140625 2.3251953125 0.09814453125 2.32177734375 L 0.56494140625 1.16015625 L 0.09912109375 -0.0009765625 Q 0.09619140625 -0.00537109375 0.09619140625 -0.01220703125 Q 0.09912109375 -0.037109375 0.125 -0.0400390625 Q 0.14208984375 -0.03857421875 0.15087890625 -0.02294921875 L 0.6220703125 1.14892578125 Q 0.6240234375 1.15478515625 0.6240234375 1.16015625 Q 0.6240234375 1.1650390625 0.623046875 1.16796875 L 0.15087890625 2.341796875 Q 0.14208984375 2.357421875 0.125 2.35888671875 Q 0.09912109375 2.35595703125 0.09619140625 2.3310546875 Z"
                 id="path31" />
            </g>
          </g>
          <path
             fill="rgb(255,255,255)"
             stroke="none"
             paint-order="stroke fill markers"
             fill-rule="evenodd"
             d=" M 37.5 109 L 166.5 109 C 168.43299662440776 109 170 110.56700337559222 170 112.5 L 170 140.5 C 170 142.43299662440776 168.43299662440776 144 166.5 144 L 37.5 144 C 35.56700337559222 144 34 142.43299662440776 34 140.5 L 34 112.5 C 34 110.56700337559222 35.56700337559222 109 37.5 109 Z"
             fill-opacity="1"
             id="path32" />
          <path
             fill="none"
             stroke="rgb(179,179,179)"
             paint-order="fill stroke markers"
             d=" M 37.5 109 L 166.5 109 C 168.43299662440776 109 170 110.56700337559222 170 112.5 L 170 140.5 C 170 142.43299662440776 168.43299662440776 144 166.5 144 L 37.5 144 C 35.56700337559222 144 34 142.43299662440776 34 140.5 L 34 112.5 C 34 110.56700337559222 35.56700337559222 109 37.5 109 Z"
             stroke-opacity="1"
             stroke-linecap="round"
             stroke-linejoin="round"
             stroke-miterlimit="10"
             id="path33" />
          <text
             fill="rgb(0,0,0)"
             stroke="none"
             font-family="geogebra-sans-serif, sans-serif"
             font-size="24px"
             font-style="normal"
             font-weight="normal"
             text-decoration="normal"
             x="44"
             y="136"
             text-anchor="start"
             dominant-baseline="alphabetic"
             fill-opacity="1"
             id="text33">Show SVG</text>
          <path
             fill="rgb(255,255,255)"
             stroke="none"
             paint-order="stroke fill markers"
             fill-rule="evenodd"
             d=" M 204.5 106 L 380.5 106 C 382.4329966244078 106 384 107.56700337559222 384 109.5 L 384 137.5 C 384 139.43299662440776 382.4329966244078 141 380.5 141 L 204.5 141 C 202.56700337559224 141 201 139.43299662440776 201 137.5 L 201 109.5 C 201 107.56700337559222 202.56700337559224 106 204.5 106 Z"
             fill-opacity="1"
             id="path34" />
          <path
             fill="none"
             stroke="rgb(179,179,179)"
             paint-order="fill stroke markers"
             d=" M 204.5 106 L 380.5 106 C 382.4329966244078 106 384 107.56700337559222 384 109.5 L 384 137.5 C 384 139.43299662440776 382.4329966244078 141 380.5 141 L 204.5 141 C 202.56700337559224 141 201 139.43299662440776 201 137.5 L 201 109.5 C 201 107.56700337559222 202.56700337559224 106 204.5 106 Z"
             stroke-opacity="1"
             stroke-linecap="round"
             stroke-linejoin="round"
             stroke-miterlimit="10"
             id="path35" />
          <text
             fill="rgb(0,0,0)"
             stroke="none"
             font-family="geogebra-sans-serif, sans-serif"
             font-size="24px"
             font-style="normal"
             font-weight="normal"
             text-decoration="normal"
             x="211"
             y="133"
             text-anchor="start"
             dominant-baseline="alphabetic"
             fill-opacity="1"
             id="text35">Download SVG</text>
          <path
             fill="rgb(255,255,255)"
             stroke="none"
             paint-order="stroke fill markers"
             fill-rule="evenodd"
             d=" M 212 30 L 722 30 C 724.2091389993232 30 726 31.790861000676827 726 34 L 726 75 C 726 77.20913899932317 724.2091389993232 79 722 79 L 212 79 C 209.7908610006768 79 208 77.20913899932317 208 75 L 208 34 C 208 31.790861000676827 209.7908610006768 30 212 30 Z"
             fill-opacity="1"
             id="path36" />
          <path
             fill="none"
             stroke="rgb(180,179,186)"
             paint-order="fill stroke markers"
             d=" M 212 30 L 722 30 C 724.2091389993232 30 726 31.790861000676827 726 34 L 726 75 C 726 77.20913899932317 724.2091389993232 79 722 79 L 212 79 C 209.7908610006768 79 208 77.20913899932317 208 75 L 208 34 C 208 31.790861000676827 209.7908610006768 30 212 30 Z"
             stroke-opacity="1"
             stroke-linecap="round"
             stroke-linejoin="round"
             stroke-miterlimit="10"
             id="path37" />
          <text
             fill="rgb(0,0,0)"
             stroke="none"
             font-family="geogebra-sans-serif, sans-serif"
             font-size="32px"
             font-style="normal"
             font-weight="normal"
             text-decoration="normal"
             x="210"
             y="66"
             text-anchor="start"
             dominant-baseline="alphabetic"
             fill-opacity="1"
             id="text37">\left\langle\frac{\vdash \textrm{Fahl}\</text>
          <text
             fill="rgb(0,0,0)"
             stroke="none"
             font-family="geogebra-sans-serif, sans-serif"
             font-size="32px"
             font-style="normal"
             font-weight="normal"
             text-decoration="normal"
             x="30"
             y="66"
             text-anchor="start"
             dominant-baseline="alphabetic"
             fill-opacity="1"
             id="text38">Enter LaTeX</text>
        </g>
      </g>
    </g>
  </g>
  <path
     style="fill:#ffffff;stroke-width:0.0485673"
     d="m 31.472553,93.819815 c -0.117638,-0.0601 -0.272704,-0.185769 -0.34459,-0.279261 C 31.05035,93.439615 28.683998,87.61997 25.302256,79.21321 22.170005,71.426663 19.59691,65.017606 19.584267,64.97086 c -0.02136,-0.07897 0.04912,-0.08499 0.995304,-0.08499 h 1.018293 l 5.573903,13.848017 c 3.065648,7.61641 5.594854,13.923889 5.620458,14.01662 0.107382,0.388904 -0.160907,0.903332 -0.567428,1.088011 -0.261338,0.118723 -0.494617,0.112924 -0.752244,-0.0187 z"
     id="path76" />
  <path
     style="fill:#ffffff;stroke-width:0.0485673"
     d="m 16.976763,58.515059 c -1.825805,-4.537488 -2.562171,-6.420774 -2.558878,-6.544439 0.0029,-0.107746 0.783979,-2.108691 2.0585,-5.273194 l 2.053876,-5.099563 1.036703,-0.01312 c 0.974704,-0.01234 1.034758,-0.008 1.004192,0.07285 -0.01788,0.04729 -0.960815,2.39498 -2.09541,5.217097 l -2.062899,5.131122 2.57551,6.398685 c 1.41653,3.519277 2.575509,6.41729 2.575509,6.44003 0,0.02274 -0.45531,0.04134 -1.011801,0.04134 h -1.0118 z"
     id="path77" />
  <path
     style="fill:#ffffff;stroke-width:0.0485673"
     d="m 18.567485,41.507957 c 0.01385,-0.03609 2.816003,-7.002459 6.227008,-15.480816 3.411005,-8.478356 6.212752,-15.442513 6.226104,-15.475903 0.01807,-0.04519 0.232515,-0.06071 0.838833,-0.06071 h 0.814555 l 0.06601,0.157844 c 0.163501,0.390949 0.445134,-0.345318 -6.028002,15.758853 l -6.095192,15.163904 -1.03725,0.0012 c -0.851627,10e-4 -1.032744,-0.01052 -1.012069,-0.0644 z"
     id="path78" />
  <path
     style="fill:#ffffff;stroke-width:0.0485673"
     d="m 293.41914,93.861698 c -0.24237,-0.105783 -0.49839,-0.429367 -0.5355,-0.67682 -0.0179,-0.119646 -0.0181,-0.268871 -2.7e-4,-0.331611 0.0178,-0.06274 2.04703,-5.50668 4.50941,-12.097644 l 4.47706,-11.983571 0.96487,-4.02e-4 c 0.89524,-3.73e-4 0.96324,0.0057 0.94231,0.08459 -0.0124,0.04675 -2.08225,5.592521 -4.59965,12.323944 -2.69036,7.193907 -4.6265,12.3042 -4.69695,12.397242 -0.23533,0.31081 -0.70949,0.437814 -1.06128,0.284272 z"
     id="path79" />
  <path
     style="fill:#ffffff;stroke-width:0.0485673"
     d="m 301.89537,68.734823 c 6.9e-4,-0.02003 2.28243,-6.134046 5.07053,-13.586693 l 5.06927,-13.550267 0.97606,-0.01315 0.97606,-0.01315 -0.1134,0.304551 c -0.0624,0.167503 -2.35057,6.287431 -5.08486,13.59984 l -4.97146,13.295289 h -0.96172 c -0.52895,0 -0.96116,-0.01639 -0.96048,-0.03642 z"
     id="path80" />
  <path
     style="fill:#ffffff;stroke-width:0.0485673"
     d="m 312.13202,41.342885 c 0.0478,-0.126882 2.00923,-5.372103 4.35871,-11.656047 l 4.27178,-11.425352 0.96486,-9.7e-5 c 0.89525,-9e-5 0.96323,0.006 0.94211,0.0849 -0.0783,0.292199 -8.6605,23.161276 -8.70273,23.190125 -0.0287,0.01963 -0.47285,0.03602 -0.98695,0.03643 l -0.93472,7.43e-4 z"
     id="path81" />
  <path
     style="fill:#ffffff;stroke-width:0.0485673"
     d="m 320.78679,18.231085 c 0,-0.04543 2.76731,-7.447781 2.85568,-7.63873 0.27913,-0.6031554 1.01251,-0.7503959 1.46814,-0.294762 0.19459,0.194591 0.3251,0.578936 0.26658,0.785066 -0.0175,0.06165 -0.62536,1.702067 -1.35081,3.645364 l -1.31898,3.533269 h -0.96031 c -0.52816,0 -0.9603,-0.01359 -0.9603,-0.03021 z"
     id="path82" />
  <path
     style="fill:#ffffff;stroke-width:0.0485673"
     d="m 340.45504,35.150559 c -0.0264,-0.0601 -2.21131,-5.504522 -4.85538,-12.098711 -5.32089,-13.2700238 -4.90095,-12.1249 -4.61299,-12.578977 0.34781,-0.5484292 1.13966,-0.5641589 1.55602,-0.03091 0.0818,0.104734 1.96397,4.728288 4.90326,12.044682 2.6238,6.531083 4.85431,12.076858 4.95669,12.323944 l 0.18615,0.449247 h -1.04289 c -1.03492,0 -1.04325,-8.35e-4 -1.09086,-0.109276 z"
     id="path83" />
  <path
     style="fill:#ffffff;stroke-width:0.0485673"
     d="m 339.93459,70.144256 c 0.0133,-0.04729 1.65701,-4.147773 3.65274,-9.112193 l 3.62862,-9.026218 -3.34329,-8.331263 c -1.8388,-4.582195 -3.35056,-8.350047 -3.35947,-8.373005 -0.009,-0.02296 0.4532,-0.04174 1.02689,-0.04174 h 1.04308 l 0.13073,0.327829 c 0.0719,0.180306 1.56324,3.890238 3.31407,8.244293 2.71031,6.740098 3.18355,7.95255 3.18472,8.159301 0.001,0.21042 -0.48153,1.442229 -3.61621,9.22778 l -3.61758,8.984945 -1.03422,0.01312 c -0.96967,0.01231 -1.03271,0.0078 -1.01008,-0.07285 z"
     id="path84" />
  <path
     style="fill:#ffffff;stroke-width:0.0485673"
     d="m 331.43561,93.848508 c -0.26995,-0.09557 -0.52243,-0.392354 -0.59653,-0.701204 l -0.0573,-0.238982 1.86727,-4.649887 c 1.027,-2.557438 3.07717,-7.660451 4.55593,-11.340028 l 2.68865,-6.690141 h 1.03946 c 0.81234,0 1.03406,0.01326 1.01479,0.06071 -0.0136,0.03339 -1.8317,4.551967 -4.04029,10.041282 -2.20859,5.489316 -4.28836,10.658087 -4.62172,11.486159 -0.33335,0.828072 -0.66185,1.586819 -0.72999,1.686104 -0.14243,0.207529 -0.54283,0.428506 -0.76597,0.422737 -0.0816,-0.0021 -0.24099,-0.03665 -0.35427,-0.07675 z"
     id="path85" />
  <path
     style="fill:#ffffff;stroke-width:0.0485673"
     d="m 94.269063,36.529122 v -0.52855 l 1.129189,-0.02483 c 1.260494,-0.02771 1.732568,-0.11003 2.100534,-0.366272 0.368338,-0.256503 0.339971,0.60749 0.339971,-10.354496 0,-7.720226 -0.01303,-9.877675 -0.06061,-10.033946 -0.207253,-0.680776 -0.604406,-0.824246 -2.428467,-0.877277 l -1.080621,-0.03142 v -0.502454 -0.502454 h 9.566831 9.56682 l 0.0239,0.109276 c 0.0297,0.135963 0.94933,7.532509 0.94933,7.635316 0,0.06141 -0.0736,0.07474 -0.41282,0.07474 -0.3957,0 -0.41283,-0.0045 -0.41295,-0.109277 -7e-5,-0.0601 -0.0541,-0.453599 -0.12006,-0.874437 -0.37159,-2.370758 -0.91335,-3.797557 -1.70729,-4.496416 -0.85679,-0.754178 -2.03033,-1.1423 -3.85489,-1.274918 -0.97482,-0.07085 -5.96533,-0.03211 -6.27535,0.04872 -0.37583,0.09799 -0.53972,0.237888 -0.6044,0.515913 -0.0401,0.172529 -0.0574,1.581722 -0.0607,4.964087 l -0.005,4.723167 1.88198,-2.87e-4 c 2.3837,-3.62e-4 2.88936,-0.06549 3.66803,-0.47243 0.411,-0.214788 0.76849,-0.594462 0.90614,-0.962348 0.15432,-0.412459 0.24753,-1.038006 0.28009,-1.879651 l 0.0296,-0.764935 h 0.40532 0.40533 v 4.613891 4.61389 h -0.41282 -0.41282 v -0.414736 c 0,-0.228105 -0.023,-0.626964 -0.0511,-0.886353 -0.13941,-1.285618 -0.47833,-2.001344 -1.10288,-2.329042 -0.73895,-0.387726 -1.23817,-0.448873 -3.66769,-0.449233 l -1.93195,-2.86e-4 0.0135,4.650315 0.0135,4.650316 0.1359,0.276748 c 0.17148,0.349195 0.33776,0.454388 0.92003,0.582027 0.37714,0.08268 0.68658,0.102562 1.91882,0.123322 l 1.46916,0.02475 v 0.529054 0.529055 l -0.27927,-0.03685 c -0.36447,-0.04809 -10.198903,-0.04809 -10.56338,0 l -0.279261,0.03685 z"
     id="path86" />
  <path
     style="fill:#ffffff;stroke-width:0.0485673"
     d="m 119.13667,37.391176 c -1.60744,-0.142602 -2.98311,-0.721381 -3.81997,-1.60715 -0.50905,-0.538801 -0.74584,-1.117343 -0.78107,-1.908358 -0.11537,-2.590782 2.08008,-4.608273 5.91553,-5.436024 0.9791,-0.211305 3.01031,-0.464899 3.7237,-0.464899 h 0.26417 l -0.0226,-1.226323 c -0.0245,-1.332635 -0.0741,-1.65468 -0.35686,-2.320332 -0.42111,-0.991251 -1.27054,-1.783817 -2.27717,-2.124741 -0.36679,-0.124223 -0.43611,-0.131338 -1.23847,-0.127123 -0.75554,0.004 -0.90347,0.01869 -1.33213,0.132561 -0.87275,0.231842 -1.72389,0.738328 -2.15458,1.282114 l -0.15423,0.194736 0.27846,0.0548 c 0.38034,0.07485 0.83427,0.298018 1.05488,0.518625 0.29949,0.299495 0.43788,0.653836 0.43711,1.119186 -5.7e-4,0.34064 -0.0202,0.431425 -0.14657,0.678556 -0.25907,0.506586 -0.78058,0.79803 -1.42797,0.79803 -0.5037,0 -0.79897,-0.109455 -1.09567,-0.406154 -0.36407,-0.364066 -0.48303,-0.737461 -0.449,-1.409355 0.0444,-0.87697 0.32462,-1.486226 0.9855,-2.142723 0.81467,-0.809264 2.08856,-1.371406 3.47345,-1.53276 0.9255,-0.107829 2.11083,0.0085 3.00768,0.29515 0.50776,0.162292 1.35134,0.603285 1.79835,0.940106 0.86727,0.653486 1.40205,1.36118 1.69407,2.24185 0.28893,0.871331 0.29514,0.987902 0.29639,5.559297 0.001,4.498985 0.006,4.586149 0.26441,5.027424 0.56296,0.960614 1.73576,0.904142 2.1121,-0.101699 0.18229,-0.487222 0.2041,-0.683158 0.23073,-2.072398 l 0.0258,-1.347742 h 0.41236 0.41236 l -0.0221,1.347742 c -0.0192,1.168702 -0.0355,1.397057 -0.12315,1.718967 -0.27456,1.008926 -0.87025,1.653126 -1.85606,2.007226 -1.19486,0.42919 -2.35949,0.01119 -3.0074,-1.079399 -0.23478,-0.395204 -0.47176,-1.020951 -0.51765,-1.3669 -0.0181,-0.136311 -0.0465,-0.247252 -0.063,-0.246534 -0.0166,7.18e-4 -0.0925,0.140951 -0.16875,0.311629 -0.44119,0.987987 -1.35165,1.882779 -2.34648,2.306118 -0.90916,0.386882 -1.77512,0.497483 -3.02616,0.386499 z m 2.2399,-0.814104 c 1.36242,-0.353928 2.49865,-1.520972 2.9138,-2.992808 0.10528,-0.37325 0.11029,-0.478129 0.12734,-2.665531 l 0.0178,-2.276993 -0.50088,0.03454 c -1.98798,0.13708 -3.62083,0.60467 -4.72247,1.35235 -0.44484,0.301904 -1.02744,0.887169 -1.31832,1.324331 -0.5059,0.760319 -0.72273,1.486093 -0.7174,2.401292 0.003,0.471074 0.0234,0.618048 0.13218,0.938699 0.15963,0.470707 0.3743,0.80932 0.71485,1.127564 0.46787,0.437238 1.05653,0.72899 1.70643,0.845746 0.37631,0.06761 1.2188,0.02198 1.64672,-0.08919 z"
     id="path87" />
  <path
     style="fill:#ffffff;stroke-width:0.0485673"
     d="m 131.66586,36.532774 v -0.53035 l 0.83778,-0.02892 c 1.24145,-0.04285 1.56118,-0.144981 1.75297,-0.559924 l 0.10473,-0.226598 0.0134,-9.713453 c 0.009,-6.602841 -0.003,-9.819854 -0.0376,-10.045707 -0.0651,-0.424221 -0.22393,-0.755266 -0.42723,-0.890284 -0.24647,-0.163696 -0.79079,-0.267144 -1.5536,-0.295262 l -0.69366,-0.02557 0.0137,-0.515218 0.0137,-0.515218 2.33123,-0.179066 c 1.28218,-0.09849 2.40226,-0.180503 2.48907,-0.182258 l 0.15785,-0.0032 v 6.070908 c 0,3.339 0.0173,6.070909 0.0384,6.070909 0.0211,0 0.1,-0.125455 0.17518,-0.278788 0.62116,-1.266528 1.74883,-2.285336 3.00088,-2.711186 0.39037,-0.132775 1.15731,-0.28743 1.6665,-0.336054 0.73581,-0.07027 2.05826,0.139712 2.71348,0.430845 1.07327,0.476879 1.80965,1.518923 2.10641,2.980732 0.0651,0.320767 0.0805,1.09462 0.10513,5.281133 0.0319,5.432635 0.007,5.051161 0.34508,5.335417 0.26032,0.219043 0.57376,0.283102 1.51717,0.310073 l 0.86207,0.02465 v 0.531141 0.531141 l -0.59495,-0.03756 c -0.79543,-0.05022 -5.49696,-0.05136 -6.45945,-0.0016 l -0.76493,0.03957 v -0.530349 -0.53035 l 0.83779,-0.02888 c 0.965,-0.03326 1.39991,-0.118225 1.60347,-0.31325 0.28415,-0.272232 0.2786,-0.163146 0.27755,-5.448131 -6e-4,-2.973208 -0.0197,-4.966714 -0.0497,-5.175741 -0.12314,-0.858544 -0.40706,-1.573807 -0.79463,-2.001915 -0.72659,-0.802571 -2.32588,-0.910612 -3.65717,-0.24706 -1.31925,0.657556 -2.3238,2.022535 -2.69167,3.657426 -0.10756,0.478005 -0.10956,0.547998 -0.12677,4.433438 -0.0154,3.467112 -0.008,3.984519 0.0588,4.249636 0.11418,0.45165 0.3128,0.674835 0.685,0.769694 0.10478,0.0267 0.58937,0.06094 1.07686,0.07608 l 0.88636,0.02753 v 0.530711 0.53071 l -0.59495,-0.03745 c -0.7969,-0.05017 -5.49861,-0.05138 -6.45945,-0.0017 l -0.76493,0.03957 z"
     id="path88" />
  <path
     style="fill:#ffffff;stroke-width:0.0485673"
     d="m 151.14133,36.532774 v -0.53035 l 0.83779,-0.02888 c 1.34409,-0.04633 1.65417,-0.167492 1.82305,-0.712363 0.0774,-0.249705 0.0832,-0.945691 0.0832,-9.957639 0,-10.443077 0.0104,-10.008908 -0.25155,-10.495494 -0.20137,-0.374059 -0.65439,-0.51753 -1.7777,-0.563002 l -0.71794,-0.02906 0.0137,-0.513508 0.0137,-0.513508 2.33123,-0.180589 c 1.28218,-0.09932 2.40226,-0.181947 2.48908,-0.183606 l 0.15784,-0.003 3.7e-4,10.915493 c 2.4e-4,7.294671 0.0171,11.018333 0.0507,11.22552 0.0277,0.170514 0.0847,0.378139 0.12673,0.461389 0.2211,0.437878 0.45676,0.516345 1.65564,0.551272 l 0.88636,0.02582 v 0.530975 0.530975 l -0.64352,-0.03706 c -0.86879,-0.05004 -5.36097,-0.05188 -6.31374,-0.0026 l -0.76494,0.03957 z"
     id="path89" />
  <path
     style="fill:#ffffff;stroke-width:0.0485673"
     d="m 177.23673,18.894803 c -0.19161,-0.116835 -0.30226,-0.280299 -0.33774,-0.498973 -0.0516,-0.317864 0.29433,-0.820211 1.1461,-1.664407 l 0.49003,-0.485673 -5.91399,-0.02428 -5.91399,-0.02428 -0.23234,-0.107271 c -0.17674,-0.0816 -0.25022,-0.150076 -0.30707,-0.286159 -0.0411,-0.09839 -0.0619,-0.230022 -0.0462,-0.292519 0.0444,-0.176933 0.29896,-0.436233 0.52555,-0.535348 0.19625,-0.08585 0.48999,-0.09063 6.33741,-0.103245 3.37239,-0.0073 6.13162,-0.02147 6.13162,-0.03154 0,-0.01008 -0.0793,-0.135255 -0.1763,-0.278178 -0.37441,-0.551906 -0.68267,-1.460448 -0.636,-1.874525 0.0295,-0.26206 0.21884,-0.478321 0.48033,-0.548733 0.38093,-0.102573 0.64975,0.101144 0.81952,0.621054 0.27745,0.849641 0.72887,1.526048 1.34829,2.020273 0.47167,0.376331 0.59252,0.532437 0.59252,0.765349 0,0.156045 -0.0361,0.230743 -0.19417,0.402275 -0.10679,0.115856 -0.33081,0.282659 -0.49781,0.370675 -0.95672,0.504209 -1.80734,1.21206 -2.6547,2.209126 -0.23612,0.277831 -0.50787,0.46086 -0.6844,0.460959 -0.0668,3.6e-5 -0.19126,-0.04252 -0.27663,-0.09457 z"
     id="path90" />
  <path
     style="fill:#ffffff;stroke-width:0.0485673"
     d="m 167.41136,37.394195 c -1.73941,-0.217161 -3.00893,-1.101936 -3.89871,-2.717167 -0.56385,-1.023581 -0.82063,-2.15891 -0.81832,-3.618262 0.004,-2.565968 0.8249,-4.645904 2.52677,-6.40258 1.03202,-1.065242 2.33075,-1.94761 3.6211,-2.460189 1.10401,-0.438562 2.49345,-0.650704 3.53051,-0.539046 0.6595,0.071 1.1329,0.203577 1.60614,0.44978 0.67357,0.350433 1.33054,1.181188 1.49106,1.885498 0.0718,0.315064 0.0618,0.989827 -0.0204,1.384167 -0.1145,0.548737 -0.4495,1.165907 -0.883,1.626716 -0.7824,0.831696 -1.73364,1.311898 -3.2172,1.624105 -1.07849,0.226961 -1.74765,0.281497 -3.75528,0.306054 l -1.88148,0.02301 -0.0465,0.17703 c -0.10471,0.39871 -0.3421,1.623008 -0.42041,2.168289 -0.10923,0.760482 -0.11063,1.978082 -0.003,2.583534 0.24973,1.404371 0.97594,2.362165 2.04732,2.700174 0.29688,0.09366 0.43846,0.106389 1.11704,0.100403 0.94402,-0.0083 1.67756,-0.127037 2.52214,-0.408162 1.63684,-0.544841 3.24068,-1.668216 4.26849,-2.989775 0.26194,-0.336812 0.4109,-0.427873 0.58908,-0.360129 0.12603,0.04792 0.26964,0.274881 0.26964,0.426143 0,0.156003 -0.2775,0.53615 -0.74152,1.015799 -1.55538,1.607781 -3.53316,2.636976 -5.66936,2.950223 -0.65325,0.09579 -1.7659,0.132834 -2.2341,0.07438 z m 2.62264,-9.315808 c 0.77318,-0.119438 1.0019,-0.168212 1.55415,-0.331407 1.75183,-0.517685 2.63897,-1.399584 2.81597,-2.799333 0.0965,-0.762824 -0.0928,-1.396003 -0.55476,-1.855431 -0.51916,-0.516383 -1.08882,-0.71377 -2.06694,-0.716197 -1.39769,-0.0035 -2.49469,0.500547 -3.66935,1.685887 -0.94864,0.957264 -1.68391,2.292065 -2.11171,3.833564 l -0.0926,0.333546 1.73477,-0.02467 c 1.42702,-0.0203 1.85108,-0.04264 2.39043,-0.125956 z"
     id="path91" />
  <path
     style="fill:#ffffff;stroke-width:0.0485673"
     d="m 186.42747,37.411641 c -0.17624,-0.04793 -0.32276,-0.174314 -0.4176,-0.360223 -0.0519,-0.101661 -1.24958,-3.033017 -2.66159,-6.514125 -1.41202,-3.481108 -2.60616,-6.405156 -2.65366,-6.497885 -0.16482,-0.321803 -0.3826,-0.582988 -0.60358,-0.723903 -0.26789,-0.170819 -0.73043,-0.246054 -1.51272,-0.246054 h -0.53072 v -0.535913 -0.535912 l 0.25497,0.0381 c 0.33195,0.0496 5.62739,0.04824 6.33803,-0.0016 l 0.54638,-0.03834 v 0.536849 0.536849 l -0.35211,8.44e-4 c -0.67797,0.0016 -1.32037,0.214727 -1.5073,0.500022 -0.20061,0.30617 -0.20357,0.295808 0.79435,2.781758 0.51375,1.279792 1.44187,3.593668 2.0625,5.141946 0.62063,1.548278 1.14731,2.821046 1.1704,2.828373 0.047,0.01492 3.60813,-8.879005 3.73653,-9.332 0.15156,-0.534661 0.003,-1.22143 -0.32646,-1.511296 -0.27962,-0.245854 -0.70736,-0.409647 -1.0698,-0.409647 h -0.23419 v -0.535592 -0.535593 l 0.32783,0.03778 c 0.42304,0.04875 4.82819,0.04942 5.09957,7.79e-4 l 0.20641,-0.037 v 0.527616 0.527615 l -0.39175,0.03021 c -0.48302,0.03725 -1.09289,0.240588 -1.46764,0.489334 -0.41506,0.275502 -0.85346,0.777432 -1.0907,1.248759 -0.11277,0.224036 -1.2455,2.997188 -2.51719,6.162559 -1.27168,3.165372 -2.36919,5.860643 -2.4389,5.989491 -0.18779,0.347089 -0.47774,0.513285 -0.76106,0.436235 z"
     id="path92" />
  <path
     style="fill:#ffffff;stroke-width:0.0485673"
     d="m 199.66314,17.237287 c -0.25401,-0.08298 -0.36855,-0.158135 -0.61134,-0.401122 -0.41633,-0.416673 -0.53303,-0.716723 -0.53188,-1.367491 7.3e-4,-0.415243 0.0181,-0.520887 0.11947,-0.728509 0.15405,-0.315401 0.48878,-0.639477 0.87889,-0.850935 0.29961,-0.162403 0.33157,-0.168977 0.82169,-0.168977 0.45996,0 0.53705,0.0133 0.78631,0.135708 0.35287,0.173287 0.72546,0.576937 0.87234,0.945075 0.0898,0.225091 0.1115,0.373084 0.11206,0.764773 6.2e-4,0.422995 -0.0156,0.520145 -0.12554,0.752792 -0.17047,0.360673 -0.43401,0.611096 -0.85591,0.813329 -0.46549,0.223125 -0.99016,0.26083 -1.46609,0.105357 z"
     id="path93" />
  <path
     style="fill:#ffffff;stroke-width:0.0485673"
     d="m 196.98883,36.532547 v -0.530123 l 0.83778,-0.02888 c 0.8153,-0.0281 1.32697,-0.107394 1.54567,-0.239527 0.16992,-0.102665 0.28314,-0.393926 0.33866,-0.871187 0.0358,-0.307446 0.0471,-2.075295 0.0353,-5.503921 -0.016,-4.631216 -0.0245,-5.074982 -0.10218,-5.339609 -0.12695,-0.432262 -0.25387,-0.605399 -0.53972,-0.736267 -0.31241,-0.143028 -0.77785,-0.211389 -1.44767,-0.212623 l -0.5221,-9.62e-4 v -0.53424 c 0,-0.449637 0.0119,-0.53424 0.0751,-0.53424 0.10846,0 4.38282,-0.332606 4.59834,-0.357817 l 0.18098,-0.02117 0.0143,6.733933 c 0.0154,7.225624 0.005,6.939465 0.2612,7.27883 0.17776,0.235576 0.48088,0.308503 1.41448,0.340313 l 0.78922,0.02689 v 0.530627 0.530627 l -0.64352,-0.03797 c -0.85359,-0.05037 -5.21242,-0.05173 -6.11947,-0.0019 l -0.71637,0.03935 z"
     id="path94" />
  <path
     style="fill:#ffffff;stroke-width:0.0485673"
     d="m 206.9462,37.220691 c -0.0801,-0.126271 -0.15777,-0.296756 -0.17264,-0.378853 -0.0149,-0.0821 -0.0206,-1.333332 -0.0127,-2.78052 0.0142,-2.601031 0.0155,-2.632826 0.11806,-2.768334 0.20974,-0.277127 0.66301,-0.107327 0.72439,0.271364 0.0597,0.368695 0.38254,1.458236 0.56678,1.913116 0.50711,1.252044 1.15349,2.103281 1.99569,2.6282 0.82109,0.511767 1.90154,0.703319 3.16597,0.561295 1.44841,-0.162688 2.36145,-0.715487 2.83872,-1.718704 0.25365,-0.533174 0.31608,-0.828945 0.31353,-1.485409 -0.002,-0.47373 -0.0212,-0.612082 -0.1277,-0.911303 -0.16785,-0.471746 -0.37376,-0.780467 -0.75127,-1.126385 -0.5941,-0.544385 -1.43138,-0.890841 -2.88037,-1.191858 -2.36526,-0.491368 -3.58065,-0.894341 -4.27238,-1.416541 -0.63963,-0.482868 -1.24551,-1.23082 -1.45879,-1.800858 -0.20559,-0.549494 -0.2541,-0.872667 -0.22785,-1.518087 0.0449,-1.104347 0.354,-1.860423 1.04317,-2.551748 0.70411,-0.706314 1.74681,-1.195607 3.02115,-1.417697 0.716,-0.124782 2.26541,-0.112844 2.84465,0.02192 0.58867,0.136957 1.13718,0.353668 1.56899,0.619893 0.19565,0.120631 0.36491,0.219329 0.37613,0.219329 0.0112,0 0.21326,-0.180443 0.449,-0.400984 0.23574,-0.220542 0.5106,-0.444559 0.6108,-0.497815 l 0.18218,-0.09683 0.13411,0.159557 c 0.0738,0.08776 0.1592,0.243279 0.18986,0.345606 0.0745,0.248574 0.0782,4.261888 0.004,4.456689 -0.0671,0.176365 -0.12443,0.208918 -0.36983,0.209818 -0.25249,9.25e-4 -0.4042,-0.162109 -0.4042,-0.434353 0,-0.09854 -0.0351,-0.385174 -0.0781,-0.636967 -0.26135,-1.53236 -0.91363,-2.536596 -1.98603,-3.057623 -0.56979,-0.276832 -0.89829,-0.343177 -1.84556,-0.372729 -1.64101,-0.0512 -2.74951,0.253614 -3.444,0.947018 -0.36006,0.359493 -0.59384,0.828626 -0.66171,1.327915 -0.12119,0.891396 0.19835,1.6209 0.9426,2.151985 0.61571,0.439365 1.30803,0.693105 2.66066,0.975153 1.95523,0.407702 2.76502,0.649626 3.58647,1.071458 1.25194,0.642899 2.17885,1.859906 2.45516,3.223579 0.11092,0.547379 0.0765,1.651634 -0.0686,2.198864 -0.21645,0.816648 -0.5384,1.39685 -1.07355,1.934685 -0.86207,0.866406 -2.03706,1.351754 -3.64301,1.504803 -1.63696,0.156004 -3.02982,-0.224403 -4.17093,-1.139132 l -0.41819,-0.335226 -0.31656,0.35951 c -0.38656,0.438996 -0.94948,0.980788 -1.12958,1.087177 l -0.13307,0.07861 z"
     id="path95" />
  <path
     style="fill:#ffffff;stroke-width:0.0485673"
     d="M 220.54395,36.525998 V 35.988344 L 221.1389,35.988 c 0.69498,-4.01e-4 1.4096,-0.09647 1.67239,-0.224829 0.22377,-0.109299 0.34208,-0.328225 0.40849,-0.755885 0.0295,-0.189928 0.0419,-2.295355 0.0328,-5.551239 -0.0161,-5.733772 -0.003,-5.472792 -0.29349,-5.905216 -0.21962,-0.327046 -0.79263,-0.48138 -1.78728,-0.48138 h -0.48215 v -0.53424 c 0,-0.520897 0.003,-0.534303 0.10927,-0.536775 0.0601,-0.0014 1.14108,-0.0842 2.40216,-0.184019 l 2.29289,-0.181483 0.0152,6.704174 c 0.0141,6.249106 0.021,6.721428 0.1007,6.958357 0.18186,0.540348 0.40799,0.636339 1.59998,0.67917 l 0.76494,0.02749 v 0.530277 0.530277 l -0.59495,-0.03721 c -0.80229,-0.05018 -5.27975,-0.05138 -6.14376,-0.0016 l -0.69209,0.03984 z"
     id="path96" />
  <path
     style="fill:#ffffff;stroke-width:0.0485673"
     d="m 223.24546,17.261855 c -0.80219,-0.255924 -1.30286,-1.044109 -1.22841,-1.933829 0.052,-0.621939 0.41767,-1.128067 1.04459,-1.446014 0.29853,-0.151403 0.35019,-0.161759 0.8069,-0.161759 0.42631,0 0.52259,0.01624 0.76225,0.128604 0.36233,0.169872 0.64772,0.46356 0.8354,0.859679 0.14174,0.299178 0.15304,0.361053 0.15304,0.837886 0,0.492549 -0.007,0.529289 -0.16998,0.848099 -0.19392,0.380169 -0.47596,0.626052 -0.91886,0.801075 -0.35397,0.139885 -0.95673,0.170967 -1.28493,0.06626 z"
     id="path97" />
  <path
     style="fill:#ffffff;stroke-width:0.0485673"
     d="m 235.214,37.391292 c -2.24745,-0.199492 -3.96887,-1.211827 -4.47319,-2.630594 -0.1631,-0.45884 -0.18851,-1.417676 -0.0527,-1.987957 0.19162,-0.804519 0.56958,-1.46065 1.20474,-2.091416 1.28751,-1.278605 3.12065,-2.049652 5.84389,-2.458017 0.7466,-0.111957 2.12622,-0.248563 2.51031,-0.248563 h 0.25802 l -2.9e-4,-0.959203 c -4.4e-4,-1.481662 -0.16653,-2.295592 -0.62642,-3.069686 -0.42907,-0.722234 -1.17949,-1.33525 -1.98786,-1.623866 -0.40616,-0.145016 -0.44891,-0.150256 -1.22224,-0.149807 -0.47246,2.74e-4 -0.92097,0.02631 -1.09277,0.06344 -0.98639,0.213178 -1.74973,0.614296 -2.32998,1.22434 l -0.29015,0.305056 0.38919,0.102989 c 0.21406,0.05664 0.48669,0.160544 0.60584,0.230888 1.09326,0.645407 1.06466,2.18722 -0.0502,2.704935 -0.50684,0.235368 -1.29356,0.184215 -1.69202,-0.110015 -0.40186,-0.296747 -0.60734,-0.778745 -0.60302,-1.414557 0.009,-1.393292 0.81221,-2.471724 2.40437,-3.230155 0.97027,-0.46219 1.9795,-0.66152 3.12009,-0.616238 1.33189,0.05288 2.40283,0.374844 3.38909,1.01889 1.30391,0.851483 1.93124,1.740591 2.25301,3.193145 0.0703,0.317519 0.084,0.927331 0.10956,4.879622 0.0322,4.978306 0.0133,4.690076 0.33573,5.128513 0.56781,0.772105 1.50285,0.758085 1.93075,-0.02895 0.25157,-0.462704 0.31545,-0.894337 0.3468,-2.34337 l 0.0276,-1.274891 h 0.40549 0.40549 l -7.7e-4,0.886353 c -0.001,1.713439 -0.12972,2.465876 -0.5242,3.075687 -0.60634,0.93733 -1.95165,1.480392 -2.99446,1.208776 -1.02352,-0.266594 -1.73599,-1.196973 -2.04275,-2.667533 -0.028,-0.134278 -0.0469,-0.111347 -0.28948,0.352031 -0.52561,1.003878 -1.14762,1.611767 -2.11984,2.07172 -0.95311,0.450908 -1.81623,0.576614 -3.14767,0.45843 z m 2.18279,-0.798662 c 1.39268,-0.351266 2.57596,-1.579811 2.96971,-3.083332 0.10191,-0.389134 0.10854,-0.527776 0.1262,-2.639542 l 0.0186,-2.228836 -0.47665,0.03333 c -3.42156,0.239232 -5.50406,1.309048 -6.42674,3.301525 -0.24196,0.522489 -0.33764,0.91898 -0.37058,1.53564 -0.0198,0.370129 -0.006,0.609834 0.0499,0.874211 0.24686,1.166004 1.15821,2.013218 2.43398,2.26269 0.42024,0.08217 1.23656,0.05505 1.67557,-0.05568 z"
     id="path98" />
  <path
     style="fill:#ffffff;stroke-width:0.0485673"
     d="m 252.40876,22.23095 c -0.0642,-0.033 -0.16135,-0.12009 -0.21588,-0.193542 -0.12603,-0.169758 -0.1226,-0.277778 0.0854,-2.683353 0.0878,-1.015055 0.15426,-1.852391 0.14773,-1.860745 -0.007,-0.0084 -0.75175,0.532131 -1.65606,1.201078 -0.9043,0.668947 -1.71522,1.236794 -1.80203,1.261882 -0.33788,0.09764 -0.63797,-0.09946 -0.74251,-0.487683 -0.0601,-0.223054 0.0384,-0.485399 0.229,-0.610299 0.0635,-0.04162 0.9149,-0.461409 1.89196,-0.932867 0.97705,-0.471457 1.77588,-0.876466 1.77516,-0.900019 -7.2e-4,-0.02355 -0.8062,-0.423837 -1.78995,-0.889521 -0.98374,-0.465683 -1.84822,-0.902802 -1.92107,-0.971374 -0.29345,-0.276257 -0.26715,-0.703843 0.0567,-0.921779 0.23509,-0.158208 0.35893,-0.178361 0.54515,-0.08872 0.0891,0.04288 0.87868,0.602096 1.75467,1.242697 0.876,0.640601 1.61224,1.16473 1.63609,1.16473 0.0239,0 0.0335,-0.07103 0.0214,-0.157844 -0.0327,-0.234836 -0.25649,-2.830697 -0.30657,-3.555927 -0.0241,-0.349511 -0.0251,-0.678216 -0.002,-0.738665 0.053,-0.139449 0.38041,-0.307156 0.59963,-0.307156 0.3952,0 0.56274,0.208675 0.56274,0.700914 0,0.278617 -0.24347,3.272677 -0.31326,3.852267 -0.0137,0.113526 -0.005,0.206411 0.0187,0.206411 0.024,0 0.72838,-0.506588 1.56536,-1.12575 1.62135,-1.199403 1.84633,-1.349676 2.02201,-1.350596 0.31491,-0.0016 0.59205,0.314148 0.59236,0.67497 3e-4,0.350752 -0.14553,0.446047 -2.13537,1.39542 -0.97422,0.464807 -1.78695,0.861036 -1.80607,0.880508 -0.0191,0.01947 0.78699,0.417871 1.79137,0.885331 2.06578,0.961459 2.15025,1.016785 2.15025,1.40838 0,0.195803 -0.0261,0.269215 -0.14279,0.402162 -0.0785,0.08945 -0.22098,0.186628 -0.31652,0.215952 -0.24307,0.0746 -0.33061,0.0219 -2.11519,-1.273245 -0.83414,-0.605368 -1.54671,-1.112219 -1.5835,-1.126336 -0.0527,-0.02022 -0.0615,0.0192 -0.0415,0.185851 0.072,0.600631 0.31416,3.53778 0.31416,3.81044 0,0.187079 -0.03,0.373577 -0.0737,0.458036 -0.13253,0.256271 -0.52336,0.36843 -0.79586,0.228389 z"
     id="path99" />
  <path
     style="fill:#ffffff;stroke-width:0.0485673"
     d="m 45.768777,83.468558 c -0.26095,-0.118103 -0.424787,-0.386178 -0.44487,-0.727909 -0.0096,-0.163744 0.09365,-1.585029 0.229489,-3.158412 0.135841,-1.573384 0.238214,-2.869468 0.227494,-2.880188 -0.01072,-0.01072 -1.03278,0.728761 -2.271245,1.643291 -1.238464,0.914531 -2.339174,1.713145 -2.446022,1.774698 -0.264526,0.152389 -0.629853,0.153524 -0.853731,0.0027 -0.342348,-0.230709 -0.525329,-0.6638 -0.430425,-1.018757 0.108447,-0.405609 0.247954,-0.489444 3.049476,-1.832537 1.419798,-0.680673 2.58145,-1.248913 2.58145,-1.262756 0,-0.01384 -1.174055,-0.582475 -2.609011,-1.263626 -1.884572,-0.894578 -2.658593,-1.285658 -2.787572,-1.408444 -0.514208,-0.489515 -0.242932,-1.30788 0.499842,-1.507888 0.1694,-0.04561 0.215858,-0.03573 0.466195,0.09916 0.152925,0.08241 1.293049,0.891486 2.533609,1.797956 1.24056,0.906469 2.262764,1.640926 2.271564,1.632126 0.0088,-0.0088 -0.09345,-1.25946 -0.227227,-2.779243 -0.133775,-1.519783 -0.247166,-2.938754 -0.251981,-3.153268 -0.01065,-0.474537 0.05363,-0.595888 0.409588,-0.773272 0.447613,-0.223055 0.961217,-0.143115 1.174798,0.182851 0.200629,0.306198 0.197246,0.477479 -0.069,3.494117 -0.138524,1.569503 -0.244896,2.89539 -0.236383,2.946415 0.01244,0.07457 0.453777,-0.231072 2.249573,-1.557933 1.228751,-0.907888 2.330607,-1.707987 2.448567,-1.777998 0.577733,-0.342892 1.256302,0.04915 1.303691,0.753204 0.01608,0.238982 2.19e-4,0.307746 -0.109417,0.474213 -0.07053,0.107085 -0.200161,0.241851 -0.288077,0.299481 -0.08791,0.05763 -1.16604,0.585994 -2.395832,1.174141 -1.229793,0.588148 -2.384958,1.144461 -2.567033,1.236252 l -0.331047,0.166893 0.193443,0.09869 c 0.106394,0.05428 1.274854,0.604697 2.596578,1.223151 1.321723,0.618455 2.477326,1.183902 2.568006,1.256549 0.53918,0.431954 0.439701,1.189547 -0.199363,1.518266 -0.253222,0.130251 -0.451057,0.115734 -0.754183,-0.05534 -0.144259,-0.08142 -1.257258,-0.869769 -2.473332,-1.7519 -1.216075,-0.88213 -2.223407,-1.591511 -2.238517,-1.576401 -0.01511,0.01511 0.08721,1.324297 0.227376,2.909305 0.164385,1.858874 0.242709,2.962783 0.22065,3.109882 -0.03812,0.254189 -0.173538,0.482004 -0.375419,0.631562 -0.170637,0.126411 -0.671483,0.160681 -0.8917,0.06101 z"
     id="path100" />
  <path
     style="fill:#ffffff;stroke-width:0.0485673"
     d="m 68.878337,73.247291 c -0.727733,-0.259052 -1.223767,-1.061527 -1.16189,-1.879688 0.04587,-0.606468 0.326987,-1.073495 0.826845,-1.373644 0.991411,-0.595313 2.139417,-0.264129 2.643667,0.762663 0.120537,0.245445 0.134071,0.324483 0.134071,0.78296 0,0.447264 -0.01544,0.542796 -0.125614,0.777077 -0.158014,0.336021 -0.496547,0.672 -0.85789,0.851416 -0.371433,0.184426 -1.058801,0.221742 -1.459189,0.07922 z"
     id="path101" />
  <path
     style="fill:#ffffff;stroke-width:0.0485673"
     d="m 69.111219,84.684802 c -0.389089,-0.09009 -0.633313,-0.23454 -0.911909,-0.539368 -0.453436,-0.496131 -0.601369,-1.169974 -0.401391,-1.828359 0.09503,-0.31286 0.14511,-0.391503 0.431147,-0.677025 0.420577,-0.41982 0.728075,-0.547413 1.319258,-0.547413 0.555724,0 0.888424,0.128156 1.236609,0.47634 0.375214,0.375215 0.524881,0.718977 0.549663,1.262495 0.02248,0.493039 -0.06931,0.823348 -0.32807,1.180556 -0.38499,0.531463 -1.222159,0.828631 -1.895307,0.672774 z"
     id="path102" />
  <path
     style="fill:#ffffff;stroke-width:0.0485673"
     d="m 90.529383,85.474757 c -0.448013,-0.04911 -0.697717,-0.122661 -1.141331,-0.336178 -0.984288,-0.473752 -1.902534,-1.61636 -2.521382,-3.137454 l -0.102876,-0.252864 -0.286699,0.116642 c -0.157685,0.06415 -0.32375,0.116641 -0.369034,0.116641 -0.144342,0 -0.33827,-0.190729 -0.33827,-0.332689 0,-0.206995 0.124956,-0.33447 0.440718,-0.449602 0.226618,-0.08263 0.285781,-0.12415 0.262586,-0.184283 -0.01647,-0.04269 -0.05459,-0.169529 -0.08471,-0.281861 -0.04832,-0.180183 -0.04366,-0.216522 0.0396,-0.308518 0.0519,-0.05735 0.157457,-0.136901 0.234562,-0.176774 0.128226,-0.06631 0.151035,-0.06455 0.267235,0.02057 0.107552,0.07878 0.255254,0.301941 0.31207,0.471493 0.0084,0.02503 0.100933,0.01115 0.206491,-0.03098 0.447132,-0.178442 0.545136,-0.186862 0.696128,-0.05981 0.291667,0.245423 0.19955,0.455813 -0.295813,0.675614 -0.168388,0.07472 -0.312099,0.140627 -0.319358,0.146468 -0.03838,0.03089 0.465573,1.129319 0.690941,1.506 0.712416,1.190735 1.546393,1.768989 2.576263,1.7863 0.492406,0.0083 0.732373,-0.09435 1.076184,-0.460261 0.641689,-0.682933 1.020885,-1.990581 1.264756,-4.361493 0.0793,-0.770993 0.08742,-1.427268 0.08742,-7.066537 0,-4.713239 -0.01497,-6.351678 -0.06191,-6.775133 -0.253918,-2.290655 -0.785737,-3.710214 -1.720253,-4.59179 -0.214049,-0.201922 -0.466488,-0.382953 -0.665514,-0.477257 -0.306012,-0.144996 -0.348377,-0.151934 -0.927746,-0.151934 -0.585605,0 -0.619025,0.0057 -0.944305,0.159684 -0.592436,0.28054 -1.005473,0.710949 -1.36344,1.420785 -0.281308,0.557824 -0.370261,0.894068 -0.397764,1.503552 -0.02152,0.476894 -0.01104,0.598506 0.07173,0.832089 0.150996,0.42616 0.426283,0.784245 1.208511,1.571991 1.298875,1.308038 1.935237,2.261506 2.285236,3.423992 0.231848,0.770062 0.20673,2.430986 -0.05592,3.69757 -0.273276,1.317828 -0.7992,2.149271 -1.594559,2.520866 -0.560834,0.262024 -1.288176,0.273483 -1.772753,0.02793 -0.642644,-0.325652 -1.087693,-1.204238 -1.159058,-2.288133 -0.02637,-0.400553 -0.01989,-0.448274 0.07759,-0.570665 0.08622,-0.108264 0.145674,-0.13356 0.313872,-0.13356 0.306008,0 0.371077,0.09825 0.425059,0.64184 0.08566,0.862566 0.229731,1.287779 0.533891,1.575728 0.227482,0.215359 0.48229,0.281409 0.834462,0.216306 0.54628,-0.100985 0.930332,-0.502642 1.167894,-1.221432 0.19053,-0.576484 0.270651,-1.203905 0.303673,-2.378057 0.05984,-2.127793 -0.108283,-2.506339 -2.014609,-4.536 -1.253363,-1.334452 -1.656606,-2.093084 -1.658471,-3.120121 -0.002,-1.121839 0.406357,-2.124926 1.185601,-2.91204 0.486544,-0.491458 1.006541,-0.834194 1.538246,-1.013874 0.537693,-0.181704 1.377952,-0.224235 1.992395,-0.100849 1.099237,0.220737 2.155012,0.90501 3.009621,1.950605 0.324681,0.397239 0.819606,1.124402 0.946709,1.390939 0.04775,0.100122 0.09915,0.180757 0.114238,0.17919 0.01509,-0.0016 0.125779,-0.159511 0.245983,-0.350988 0.32372,-0.515663 1.272478,-1.449833 1.880784,-1.851866 1.554172,-1.027161 3.712153,-1.674928 5.867983,-1.76141 0.61992,-0.02487 0.75623,-0.01718 0.89849,0.05066 0.15259,0.07276 0.39617,0.490368 2.70235,4.632988 1.39406,2.504161 2.54878,4.611085 2.56605,4.682055 0.0173,0.07097 0.008,0.172194 -0.0199,0.224941 -0.0801,0.149704 -2.13831,1.318594 -3.68268,2.091473 -0.85198,0.426372 -1.53783,0.727181 -2.01559,0.884018 l -0.31658,0.103925 0.019,0.201711 c 0.0316,0.336015 0.30203,4.77062 0.38074,6.243427 0.0674,1.261283 0.0669,1.431607 -0.005,1.991258 -0.11621,0.89796 -0.029,1.596735 0.27364,2.191687 0.17278,0.339707 0.55864,0.794765 0.91204,1.075604 l 0.36045,0.286433 0.1768,-0.132718 c 0.15896,-0.119321 1.04751,-0.832294 2.05406,-1.648181 0.53772,-0.435864 0.78186,-0.569442 0.9666,-0.528866 0.19876,0.04366 0.483,0.297182 0.483,0.430811 0,0.167403 -0.50116,0.615675 -1.7727,1.585619 -1.82196,1.389808 -1.91391,1.434172 -2.80343,1.352634 -1.0254,-0.09399 -1.90277,-0.534067 -2.53113,-1.26957 -0.53061,-0.621079 -0.89459,-1.409087 -1.00821,-2.182722 -0.0447,-0.304056 -0.0402,-0.496654 0.024,-1.029291 0.0777,-0.645228 0.0763,-0.702246 -0.0923,-3.729888 -0.16785,-3.013005 -0.27455,-4.450419 -0.33799,-4.553064 -0.0215,-0.03486 -0.671064,-0.05145 -2.014489,-0.05145 H 96.12602 l -0.02445,2.391938 c -0.02606,2.549633 -0.06508,3.100352 -0.304147,4.292499 -0.452281,2.255385 -1.549691,4.373921 -2.777889,5.362678 -0.75424,0.607198 -1.598864,0.868714 -2.490153,0.771013 z M 101.80158,71.588086 c 0.8717,-0.09989 1.79879,-0.408694 3.13278,-1.043484 0.69084,-0.328745 1.23368,-0.669634 1.23368,-0.774722 0,-0.07202 -4.46654,-8.093269 -4.74473,-8.520837 l -0.17008,-0.2614 -0.2745,0.02873 c -0.81433,0.08521 -2.514385,0.773788 -3.421171,1.385682 -0.931856,0.62881 -1.624581,1.425794 -1.978764,2.27658 l -0.146953,0.352996 0.149215,0.512229 c 0.401869,1.37954 0.488199,2.091379 0.519522,4.283731 l 0.02585,1.809131 2.628871,-3.98e-4 c 1.44588,-2.2e-4 2.8167,-0.02192 3.04628,-0.04823 z"
     id="path103" />
  <path
     style="fill:#ffffff;stroke-width:0.0485673"
     d="m 110.34483,84.344705 v -0.405173 l 0.83778,-0.03194 c 0.89049,-0.03395 1.36625,-0.110028 1.67042,-0.267105 0.36235,-0.187113 0.33134,0.542939 0.34794,-8.191237 0.0109,-5.725977 -2e-5,-7.937464 -0.04,-8.123438 -0.12734,-0.591766 -0.37778,-0.692523 -1.80833,-0.727509 l -1.00777,-0.02465 v -0.406788 -0.406787 h 7.8564 7.85641 l 0.37783,3.047596 c 0.20781,1.676177 0.3769,3.074915 0.37575,3.108305 -0.001,0.04207 -0.0981,0.06071 -0.3148,0.06071 h -0.31271 l -0.0312,-0.230695 c -0.20045,-1.479981 -0.48946,-2.567586 -0.88727,-3.338999 -0.376,-0.729119 -1.10646,-1.266441 -2.10861,-1.551087 -0.85075,-0.241642 -1.28318,-0.270186 -4.09321,-0.270186 -2.73862,0 -2.98592,0.01681 -3.22092,0.218919 l -0.13094,0.11261 -0.0133,3.773165 -0.0133,3.773165 1.76173,-0.02287 c 1.96272,-0.02548 2.26693,-0.06639 2.86536,-0.385348 0.64535,-0.343967 0.84579,-0.851966 0.93995,-2.382223 l 0.0321,-0.522098 h 0.30988 0.30989 v 3.691112 3.691113 h -0.31569 c -0.29485,0 -0.31572,-0.0072 -0.31619,-0.109277 -2.7e-4,-0.0601 -0.0232,-0.371539 -0.051,-0.692083 -0.11562,-1.334785 -0.37883,-1.856468 -1.09057,-2.161559 -0.53294,-0.228441 -0.77414,-0.253581 -2.65833,-0.277072 l -1.78484,-0.02225 v 4.024911 4.02491 l 0.10927,0.213596 c 0.19165,0.37461 0.10681,0.365121 3.26615,0.365328 2.42224,1.59e-4 2.83673,-0.01067 3.31543,-0.08659 1.60435,-0.254465 2.69912,-0.853898 3.2845,-1.798407 0.5029,-0.811425 0.95767,-2.335194 1.26735,-4.246436 l 0.0334,-0.206411 h 0.32586 0.32585 l -0.58466,3.593978 -0.58465,3.593978 h -8.05047 -8.05047 z"
     id="path104" />
  <path
     style="fill:#ffffff;stroke-width:0.0485673"
     d="m 129.48033,84.345631 v -0.406099 l 0.83779,-0.03194 c 1.20877,-0.04609 1.65997,-0.161127 1.90118,-0.484728 l 0.10222,-0.13712 V 75.26356 67.241379 l -0.10739,-0.232588 c -0.0856,-0.18537 -0.14967,-0.251165 -0.31568,-0.324096 -0.29832,-0.13105 -0.86001,-0.196108 -1.69313,-0.196108 h -0.72499 v -0.414594 -0.414594 l 5.47596,0.01464 c 5.47522,0.01463 5.47603,0.01465 5.99603,0.124551 1.7436,0.368507 3.03209,1.146397 4.0446,2.441831 1.01377,1.297055 1.18702,3.115615 0.42964,4.509939 -0.76229,1.40335 -2.44474,2.56583 -4.29932,2.970598 -0.66129,0.14433 -1.60911,0.188178 -4.08461,0.188962 l -2.27257,7.2e-4 0.0162,3.581836 c 0.0126,2.776925 0.0305,3.624632 0.0795,3.772278 0.15772,0.474844 0.52767,0.598414 1.93137,0.645099 l 0.89106,0.02964 v 0.40577 0.405772 l -0.20641,-0.037 c -0.27072,-0.04853 -7.69431,-0.0482 -7.8679,3.51e-4 l -0.13356,0.03735 z m 10.37489,-9.238409 c 0.75392,-0.130927 1.20522,-0.298 1.72875,-0.639991 0.65899,-0.430488 1.14101,-1.146622 1.34945,-2.004871 0.20052,-0.825657 0.17558,-2.442793 -0.0516,-3.344324 -0.36843,-1.46216 -1.39954,-2.30265 -3.13621,-2.556439 -0.44589,-0.06516 -0.88535,-0.07639 -2.50122,-0.06389 -1.93897,0.015 -1.96278,0.01639 -2.18972,0.128163 -0.186,0.0916 -0.23882,0.146783 -0.27899,0.291404 -0.0319,0.114685 -0.0496,1.622451 -0.0498,4.221626 l -2.8e-4,4.043225 h 2.34916 c 1.89793,0 2.43199,-0.01439 2.78047,-0.07491 z"
     id="path105" />
  <path
     style="fill:#ffffff;stroke-width:0.0485673"
     d="m 158.08484,85.261279 c -2.01852,-0.327611 -3.62627,-1.197618 -5.17267,-2.79911 -1.23911,-1.283248 -2.04914,-2.727203 -2.47261,-4.40765 -0.26636,-1.056957 -0.29207,-1.300762 -0.2927,-2.775257 -6.4e-4,-1.493758 0.0478,-1.92442 0.33695,-2.997686 0.80753,-2.997018 3.11579,-5.636491 5.854,-6.693991 2.09628,-0.809581 4.64293,-0.709102 6.67822,0.263493 2.76003,1.318924 4.82222,4.029966 5.43536,7.145522 0.54282,2.758275 0.0708,5.594154 -1.29857,7.802362 -1.44552,2.330936 -3.60516,3.889609 -6.08538,4.39199 -0.67588,0.136902 -2.33184,0.175948 -2.9826,0.07033 z m 2.59996,-0.751387 c 0.53725,-0.146589 1.28556,-0.515106 1.74842,-0.861046 0.52259,-0.390579 1.25043,-1.167371 1.63907,-1.749286 1.18702,-1.777391 1.73403,-3.961675 1.73806,-6.940305 0.002,-1.700639 -0.0961,-2.60442 -0.41964,-3.852378 -0.38596,-1.488925 -1.02576,-2.662579 -1.96171,-3.598527 -1.18152,-1.18152 -2.56997,-1.79684 -4.05452,-1.79684 -1.49749,0 -2.83071,0.564082 -3.91125,1.65484 -1.36183,1.374704 -2.12884,3.146515 -2.43729,5.63025 -0.0969,0.78003 -0.0818,3.197701 0.0255,4.079651 0.19803,1.628597 0.55201,2.884548 1.12904,4.005936 0.83324,1.619318 2.23992,2.890218 3.70654,3.348773 0.60929,0.190501 0.83199,0.217451 1.6565,0.200458 0.5865,-0.01209 0.83862,-0.03893 1.14133,-0.121526 z"
     id="path106" />
  <path
     style="fill:#ffffff;stroke-width:0.0485673"
     d="m 172.06979,85.221883 c -0.18417,-0.258125 -0.19024,-0.366918 -0.18997,-3.405429 1.8e-4,-1.903281 0.0184,-3.032678 0.0507,-3.149247 0.0567,-0.204178 0.21149,-0.277067 0.42725,-0.201189 0.14534,0.05111 0.1901,0.178521 0.19683,0.560239 0.003,0.150939 0.0477,0.522479 0.1,0.825643 0.44994,2.606973 2.21149,4.255195 4.9267,4.609755 0.63536,0.08297 1.91438,0.03411 2.28754,-0.08739 1.05809,-0.344504 1.85721,-1.139484 2.32778,-2.315732 0.35273,-0.881685 0.37575,-2.130536 0.0559,-3.03031 -0.29374,-0.826195 -0.89985,-1.567971 -1.65062,-2.020061 -0.46915,-0.282506 -0.86392,-0.405111 -3.05788,-0.949691 -2.25473,-0.559667 -2.62678,-0.690051 -3.33918,-1.170219 -0.74622,-0.50296 -1.53986,-1.475303 -1.88931,-2.314727 -0.58219,-1.398463 -0.56393,-3.063815 0.0484,-4.414258 0.54609,-1.20436 1.76346,-2.317944 3.04315,-2.783694 0.65543,-0.238547 1.12743,-0.314665 1.93631,-0.312266 1.62856,0.0048 2.93379,0.522344 4.14305,1.642677 0.25931,0.24024 0.31593,0.273229 0.36954,0.215286 0.0348,-0.03764 0.26762,-0.407185 0.51733,-0.821221 0.24971,-0.414036 0.52859,-0.828615 0.61974,-0.921287 l 0.16572,-0.168493 0.11601,0.14421 c 0.0638,0.07932 0.13758,0.220703 0.16392,0.314195 0.0666,0.236494 0.0643,6.036258 -0.003,6.276941 -0.0539,0.194247 -0.191,0.268708 -0.38263,0.207885 -0.14762,-0.04685 -0.19403,-0.166202 -0.29621,-0.761781 -0.4359,-2.540588 -1.46102,-4.177066 -3.08727,-4.928439 -1.07989,-0.49894 -2.56192,-0.616192 -3.59995,-0.284814 -0.48531,0.154929 -0.8051,0.341428 -1.179,0.687596 -0.57401,0.531432 -0.95974,1.155 -1.15202,1.86235 -0.11875,0.436843 -0.11614,1.500514 0.005,1.94269 0.27934,1.021623 1.06405,1.923564 2.05469,2.361676 0.1505,0.06656 1.25241,0.358931 2.44869,0.649717 2.09551,0.509372 2.68219,0.687481 3.15156,0.956772 1.13376,0.650482 2.07483,1.83197 2.52593,3.171224 0.28701,0.852113 0.374,2.083967 0.21597,3.058403 -0.36858,2.272742 -2.10334,4.114576 -4.3042,4.569863 -0.44567,0.09219 -0.60506,0.100818 -1.42459,0.07707 -0.63391,-0.01836 -1.06877,-0.05665 -1.38914,-0.122289 -1.232,-0.252431 -2.32352,-0.789875 -3.16367,-1.557729 l -0.27646,-0.252665 -0.16384,0.258401 c -0.0901,0.142121 -0.33603,0.531592 -0.54648,0.865492 -0.53101,0.842464 -0.6413,0.940716 -0.80247,0.714841 z"
     id="path107" />
  <path
     style="fill:#ffffff;stroke-width:0.0485673"
     d="M 186.644,84.345313 V 83.9396 l 0.91064,-0.03204 c 1.20364,-0.04235 1.6914,-0.148854 1.94925,-0.425629 0.0533,-0.05726 0.1173,-0.232957 0.14711,-0.40414 0.0678,-0.389079 0.0738,-15.267206 0.006,-15.678895 -0.12134,-0.740883 -0.37538,-0.854427 -2.00561,-0.896418 l -1.00777,-0.02596 v -0.410881 -0.410881 l 0.54638,0.0373 c 0.71302,0.04868 6.69885,0.04888 7.40651,2.46e-4 l 0.54638,-0.03755 v 0.410716 0.410716 l -0.9592,0.0264 c -1.29585,0.03567 -1.7088,0.147417 -1.92883,0.521953 -0.0982,0.167112 -0.0989,0.222123 -0.11189,8.01188 -0.009,5.525846 0.003,7.919103 0.04,8.099078 0.0703,0.338841 0.22408,0.512256 0.54326,0.61265 0.31667,0.0996 1.08559,0.172267 1.84603,0.174446 l 0.57066,0.0016 v 0.413747 0.413747 l -0.13356,-0.03735 c -0.1736,-0.04855 -7.88856,-0.04888 -8.1593,-3.51e-4 l -0.20641,0.037 z"
     id="path108" />
  <path
     style="fill:#ffffff;stroke-width:0.0485673"
     d="m 200.77708,84.337631 v -0.413396 l 0.76493,-1.98e-4 c 1.48023,-3.82e-4 2.65724,-0.150667 2.97475,-0.379827 0.0668,-0.0482 0.16512,-0.173643 0.21855,-0.278767 0.0957,-0.188404 0.0973,-0.300763 0.11044,-7.86244 0.008,-4.755989 -0.005,-7.800212 -0.0337,-8.010507 -0.0956,-0.689468 -0.18594,-0.723614 -1.9223,-0.726138 -1.40509,-0.002 -1.98764,0.04818 -2.72355,0.234819 -1.55263,0.393766 -2.02744,1.201799 -2.39736,4.079882 -0.0549,0.427392 -0.0999,0.848106 -0.1,0.93492 l -9e-5,0.157843 h -0.33904 -0.33904 l 0.025,-0.206411 c 0.0262,-0.216195 0.50733,-5.910386 0.50733,-6.004738 0,-0.03986 2.26952,-0.05103 8.53517,-0.04202 l 8.53518,0.01228 0.25218,2.962603 c 0.13869,1.629432 0.25367,3.033633 0.2555,3.120447 l 0.003,0.157843 h -0.31271 -0.31271 l -0.0259,-0.206411 c -0.0142,-0.113526 -0.0698,-0.557377 -0.12358,-0.986336 -0.33444,-2.669027 -0.77229,-3.472133 -2.13918,-3.923656 -0.7364,-0.243256 -1.20548,-0.291731 -2.85887,-0.295435 l -1.52328,-0.0034 -0.18146,0.204481 c -0.3686,0.415346 -0.34466,-0.199874 -0.33027,8.489152 l 0.0129,7.77067 0.10466,0.194269 c 0.0576,0.106848 0.16973,0.232235 0.24927,0.278638 0.35117,0.204869 1.4375,0.32723 2.91222,0.328027 l 0.78922,4.26e-4 v 0.414494 0.414495 l -0.25498,-0.0381 c -0.32829,-0.04905 -9.85298,-0.05009 -10.12627,-0.0011 l -0.20641,0.037 z"
     id="path109" />
  <path
     style="fill:#ffffff;stroke-width:0.0485673"
     d="m 225.74065,85.256273 c -1.90297,-0.301214 -3.50834,-1.144862 -4.97993,-2.617048 -1.63225,-1.632906 -2.54127,-3.463259 -2.89541,-5.830094 -0.0981,-0.655753 -0.0836,-2.524114 0.025,-3.227992 0.17701,-1.14658 0.51299,-2.22568 0.991,-3.182887 0.84154,-1.685177 2.32883,-3.289559 3.91468,-4.222884 2.00046,-1.177334 4.49922,-1.453308 6.79653,-0.75064 2.96917,0.908165 5.50589,3.637319 6.37337,6.856848 0.28463,1.056353 0.33722,1.511887 0.33768,2.924835 4.7e-4,1.433826 -0.0451,1.851967 -0.31316,2.873706 -0.28395,1.082304 -0.70681,2.031625 -1.31499,2.952194 -0.43961,0.665412 -0.73538,1.026954 -1.34735,1.646997 -1.30245,1.319624 -2.76016,2.122235 -4.55714,2.509153 -0.64698,0.139304 -2.33938,0.177176 -3.03031,0.06781 z m 2.58259,-0.7403 c 0.94959,-0.255345 1.73443,-0.724313 2.49269,-1.48946 1.70709,-1.722594 2.57525,-4.177748 2.67939,-7.577266 0.0898,-2.932073 -0.42983,-5.230369 -1.57581,-6.969402 -0.59714,-0.906167 -1.79149,-1.910573 -2.77722,-2.335545 -0.79321,-0.341973 -1.12442,-0.405654 -2.11461,-0.406568 -0.80433,-7.42e-4 -0.91219,0.0098 -1.34936,0.131469 -2.002,0.557318 -3.60136,2.214988 -4.42208,4.583291 -0.4913,1.417715 -0.71661,3.364038 -0.61779,5.336726 0.0868,1.733512 0.28664,2.888611 0.71084,4.109585 0.847,2.437891 2.63261,4.215858 4.68276,4.662725 0.56855,0.123924 1.74814,0.10047 2.29119,-0.04555 z"
     id="path110" />
  <path
     style="fill:#ffffff;stroke-width:0.0485673"
     d="m 254.66246,85.253888 c -0.58432,-0.105396 -1.00295,-0.24309 -1.47935,-0.486588 -0.78391,-0.400678 -1.28279,-0.898999 -1.62818,-1.626351 -0.29756,-0.626641 -0.35872,-1.059695 -0.41069,-2.907826 -0.061,-2.170907 -0.15431,-2.678677 -0.60419,-3.289207 -0.46961,-0.637304 -1.12996,-1.105503 -1.87644,-1.330439 -0.34735,-0.104663 -0.45455,-0.110342 -2.41738,-0.128039 l -2.05392,-0.01852 0.016,3.803694 c 0.0125,2.963708 0.03,3.845751 0.0794,3.994137 0.15803,0.474909 0.52782,0.598415 1.93149,0.645099 l 0.89106,0.02964 v 0.40577 0.405772 l -0.20641,-0.037 c -0.26939,-0.04829 -7.47709,-0.04829 -7.74648,0 l -0.20641,0.037 v -0.413396 -0.413396 l 0.5221,-0.0013 c 0.66828,-0.0016 1.42043,-0.07482 1.74859,-0.170223 0.38345,-0.111471 0.53875,-0.275657 0.59583,-0.629884 0.0644,-0.399659 0.0639,-15.417368 -4.8e-4,-15.757034 -0.13705,-0.722673 -0.3531,-0.820479 -1.90684,-0.863249 l -0.9592,-0.0264 v -0.406622 -0.406623 h 4.70588 c 2.92734,0 4.89596,0.01923 5.20884,0.05088 1.94141,0.196392 3.51811,0.88405 4.75994,2.075988 0.68164,0.65426 1.10242,1.327665 1.31124,2.098485 0.0806,0.297586 0.0799,1.22589 -0.001,1.554153 -0.37139,1.502828 -1.9156,2.836795 -4.1221,3.560888 -0.35394,0.116148 -0.65497,0.222628 -0.66897,0.236621 -0.014,0.01399 0.11168,0.07512 0.27927,0.135844 1.46,0.528992 2.5724,1.569825 3.01006,2.816405 0.0518,0.147517 0.22435,1.065929 0.38347,2.040917 0.55692,3.412515 0.76905,4.045687 1.4765,4.407 0.19907,0.101672 0.31356,0.124494 0.63525,0.126634 0.33176,0.0022 0.43416,-0.01782 0.66253,-0.129547 0.62683,-0.306677 0.99944,-0.977259 1.15853,-2.085005 0.0862,-0.599771 0.23098,-0.802143 0.47906,-0.669373 0.14879,0.07963 0.19722,0.209656 0.19722,0.52945 0,0.766403 -0.35922,1.660216 -0.88598,2.204531 -0.31837,0.328967 -0.66844,0.539389 -1.08099,0.649756 -0.31706,0.08482 -1.29469,0.07792 -1.79699,-0.01268 z m -6.67673,-10.413533 c 2.21447,-0.271023 3.56613,-1.270378 4.03744,-2.985085 0.14752,-0.536727 0.16098,-1.945805 0.0239,-2.501215 -0.14122,-0.572059 -0.47,-1.208763 -0.81421,-1.576723 -0.93725,-1.001921 -2.19836,-1.317533 -5.11822,-1.280909 -1.4763,0.01852 -1.60113,0.04498 -1.79564,0.380702 -0.0964,0.166397 -0.0988,0.252768 -0.11174,4.091792 l -0.0132,3.921807 h 1.6901 c 0.92955,0 1.87529,-0.02267 2.10164,-0.05037 z"
     id="path111" />
  <path
     style="fill:#ffffff;stroke-width:0.0485673"
     d="m 272.08849,85.089051 c -1.21606,-0.08044 -1.85751,-0.232956 -2.61021,-0.620637 -0.78178,-0.402655 -1.57162,-1.002911 -3.23084,-2.455345 -1.21034,-1.059495 -2.01835,-1.682063 -2.74448,-2.114606 -0.84842,-0.505391 -1.23221,-0.637412 -2.40314,-0.826658 -0.38054,-0.0615 -0.60121,-0.2318 -0.48399,-0.373498 0.0379,-0.04585 0.17824,-0.134308 0.3118,-0.196577 0.23216,-0.108235 0.29213,-0.113235 1.36347,-0.113689 1.25675,-5.32e-4 1.74645,0.05926 2.47335,0.302013 1.20238,0.401537 2.22136,1.089238 3.84,2.591574 0.42914,0.39831 0.94274,0.867613 1.14133,1.042896 1.51622,1.338274 2.7234,2.038361 3.51091,2.036099 1.32214,-0.0038 3.32778,-1.449265 3.94387,-2.842341 0.29794,-0.673707 0.40351,-1.690571 0.23457,-2.259465 -0.17512,-0.589673 -0.61535,-1.307505 -1.28013,-2.08733 -0.75418,-0.884708 -1.49279,-2.143453 -1.72939,-2.94727 -0.10794,-0.366692 -0.12121,-0.481848 -0.095,-0.824076 0.10837,-1.414641 0.89734,-2.495503 2.33282,-3.195882 0.78524,-0.383123 1.23245,-0.482847 2.16124,-0.481944 0.84114,8.19e-4 1.33479,0.0921 1.91095,0.353339 1.02339,0.464027 1.85772,1.442995 2.02432,2.375269 0.0739,0.413356 0.0344,0.66572 -0.11987,0.766817 -0.17641,0.115588 -0.42339,0.13721 -0.62155,0.05441 -0.14319,-0.05983 -0.18525,-0.109385 -0.22044,-0.259737 -0.24431,-1.04392 -0.33651,-1.253062 -0.74486,-1.68959 -0.18661,-0.199482 -0.40371,-0.367383 -0.62626,-0.484329 -0.3616,-0.190016 -1.15316,-0.415962 -1.45724,-0.415962 -0.54632,0 -1.08816,0.386946 -1.38343,0.987953 -0.26576,0.540939 -0.3772,1.12999 -0.38277,2.023218 -0.004,0.705642 0.004,0.777128 0.13109,1.14133 0.18265,0.52261 0.44092,0.946216 0.92008,1.509034 1.38043,1.621458 1.91815,2.44435 2.07009,3.167956 0.081,0.385539 0.0641,1.096013 -0.0376,1.589049 -0.19519,0.945725 -0.66326,1.752738 -1.45241,2.504172 -0.96278,0.916765 -2.13166,1.451569 -3.65407,1.671872 -0.62987,0.09115 -2.23662,0.128523 -3.09218,0.07193 z"
     id="path112" />
  <path
     style="fill:#ffffff;stroke-width:0.0485673"
     d="m 267.02283,73.301725 c -0.82239,-0.09338 -1.84038,-0.415492 -2.6712,-0.845223 -1.72883,-0.894207 -2.99238,-2.27711 -3.49299,-3.822926 -0.22575,-0.697078 -0.27125,-1.028684 -0.26771,-1.95072 0.004,-0.956601 0.0778,-1.387447 0.37455,-2.177508 0.76391,-2.033763 2.92924,-3.716524 5.4529,-4.237666 0.61538,-0.127077 2.16784,-0.179664 2.86919,-0.09719 2.33525,0.274611 4.33218,1.244351 6.10628,2.965297 0.87382,0.84764 1.45348,1.606178 2.04252,2.672855 0.62103,1.124592 0.83165,1.422771 1.06157,1.502921 0.21912,0.07639 1.05632,0.06189 1.48003,-0.02563 0.517,-0.10679 0.93584,-0.309516 1.24651,-0.603335 0.28601,-0.270498 0.43677,-0.540197 0.52069,-0.931486 0.0766,-0.35736 0.21295,-0.476707 0.54447,-0.476707 0.40363,0 0.4942,0.09643 0.48977,0.521469 -0.0103,0.989237 -0.89113,1.760155 -2.46218,2.154957 -0.56923,0.143047 -1.79859,0.180932 -2.37134,0.07308 -1.09557,-0.206307 -2.09974,-0.708246 -3.08694,-1.543025 -0.5481,-0.463475 -0.93991,-0.889733 -1.70671,-1.856774 -1.30912,-1.650992 -2.12764,-2.543091 -2.78104,-3.031051 -0.36754,-0.274475 -1.01051,-0.565578 -1.47341,-0.667078 -0.3159,-0.06927 -0.52968,-0.07908 -1.21418,-0.05571 -1.07484,0.03669 -1.86351,0.220274 -2.66285,0.61984 -0.81217,0.405982 -1.8318,1.2614 -2.36736,1.986094 -1.40596,1.902488 -1.4113,4.608421 -0.0128,6.489099 1.11689,1.501974 2.90225,2.439254 5.0285,2.639864 0.28867,0.02723 0.60034,0.08534 0.69261,0.129124 0.2643,0.125419 0.28808,0.434249 0.0421,0.54634 -0.11597,0.05284 -0.98454,0.0661 -1.38095,0.02109 z"
     id="path113" />
  <path
     style="fill:#ffffff;stroke-width:0.0485673"
     d="M 37.445362,52.015542 V 51.3356 h 20.009713 20.009714 v 0.679942 0.679941 H 57.455075 37.445362 Z"
     id="path114" />
  <path
     style="fill:#ffffff;stroke-width:0.0485673"
     d="M 77.464789,52.015542 V 51.3356 h 23.312291 23.31228 v 0.679942 0.679941 H 100.77708 77.464789 Z"
     id="path115" />
  <path
     style="fill:#ffffff;stroke-width:0.0485673"
     d="M 124.08936,52.015542 V 51.3356 h 21.3696 21.3696 v 0.679942 0.679941 h -21.3696 -21.3696 z"
     id="path116" />
  <path
     style="fill:#ffffff;stroke-width:0.0485673"
     d="M 166.82856,52.015542 V 51.3356 h 25.25498 25.25497 v 0.679942 0.679941 h -25.25497 -25.25498 z"
     id="path117" />
  <path
     style="fill:#ffffff;stroke-width:0.0485673"
     d="M 217.33851,52.015542 V 51.3356 h 25.25498 25.25498 v 0.679942 0.679941 h -25.25498 -25.25498 z"
     id="path118" />
  <path
     style="fill:#ffffff;stroke-width:0.0485673"
     d="M 267.84847,52.015542 V 51.3356 h 7.98932 7.98931 v 0.679942 0.679941 h -7.98931 -7.98932 z"
     id="path119" />
  <path
     style="fill:#ffffff;stroke-width:0.0367892"
     d="m 64.349866,36.98435 c -0.0678,-0.03341 -0.16328,-0.121193 -0.212179,-0.195084 -0.209927,-0.317222 -0.199557,0.340592 -0.188913,-11.983446 0.01041,-12.054504 7.3e-4,-11.439871 0.184448,-11.709796 0.140518,-0.206454 0.264855,-0.274975 0.498968,-0.274975 0.344962,0 0.532897,0.190644 0.627384,0.636425 0.02948,0.139063 0.04132,1.713065 0.04132,5.490285 v 5.29533 l 7.679753,0.01011 c 8.164555,0.01075 7.795833,0.0023 8.070368,0.184736 0.135724,0.09019 0.289986,0.356891 0.289986,0.501351 0,0.147317 -0.143093,0.399989 -0.271446,0.479315 -0.316029,0.195317 0.06013,0.186711 -8.161019,0.186711 h -7.607642 v 5.308315 c 0,5.749995 0.0059,5.571511 -0.194285,5.864455 -0.167231,0.244706 -0.49655,0.33447 -0.756745,0.206271 z"
     id="path120" />
</svg>
